<svg width="57" height="56" viewBox="0 0 57 56" fill="none" xmlns="http://www.w3.org/2000/svg">
<g filter="url(#filter0_i_1857_327)">
<path d="M2.97022 48.7378L8.24278 53.7811C9.73157 55.2052 11.7124 56 13.7726 56H43.1238C45.2455 56 47.2804 55.1571 48.7806 53.6569L54.1569 48.2806C55.6571 46.7804 56.5 44.7455 56.5 42.6238V12.9387C56.5 10.817 55.6571 8.78215 54.1569 7.28185L49.2181 2.34314C47.7179 0.842853 45.683 0 43.5613 0H13.4387C11.317 0 9.28215 0.842853 7.78186 2.34314L2.84315 7.28185C1.34285 8.78215 0.5 10.817 0.5 12.9387V42.9567C0.5 45.1401 1.39241 47.2286 2.97022 48.7378Z" fill="#090D16"/>
</g>
<path d="M8.934 53.0585L3.66144 48.0152C2.28086 46.6946 1.5 44.8671 1.5 42.9567V12.9387C1.5 11.0822 2.2375 9.30172 3.55025 7.98896L8.48896 3.05025C9.80172 1.7375 11.5822 1 13.4387 1H43.5613C45.4178 1 47.1983 1.7375 48.511 3.05025L53.4497 7.98896C54.7625 9.30172 55.5 11.0822 55.5 12.9387V42.6238C55.5 44.4803 54.7625 46.2608 53.4497 47.5735L48.0735 52.9497C46.7608 54.2625 44.9803 55 43.1238 55H13.7726C11.9699 55 10.2367 54.3045 8.934 53.0585Z" stroke="#3BFFEF" stroke-opacity="0.25" stroke-width="2"/>
<path d="M36 23.3334H38.3333C38.9777 23.3334 39.5 23.8557 39.5 24.5V38.5C39.5 39.1444 38.9777 39.6667 38.3333 39.6667H19.6667C19.0223 39.6667 18.5 39.1444 18.5 38.5V24.5C18.5 23.8557 19.0223 23.3334 19.6667 23.3334H22V22.1667C22 18.3007 25.134 15.1667 29 15.1667C32.866 15.1667 36 18.3007 36 22.1667V23.3334ZM27.8333 32.3545V35H30.1667V32.3545C30.8641 31.9511 31.3333 31.197 31.3333 30.3334C31.3333 29.0447 30.2887 28 29 28C27.7113 28 26.6667 29.0447 26.6667 30.3334C26.6667 31.197 27.1359 31.9511 27.8333 32.3545ZM33.6667 23.3334V22.1667C33.6667 19.5894 31.5773 17.5 29 17.5C26.4227 17.5 24.3333 19.5894 24.3333 22.1667V23.3334H33.6667Z" fill="#3BFFEF"/>
<defs>
<filter id="filter0_i_1857_327" x="0.5" y="0" width="56" height="56" filterUnits="userSpaceOnUse" color-interpolation-filters="sRGB">
<feFlood flood-opacity="0" result="BackgroundImageFix"/>
<feBlend mode="normal" in="SourceGraphic" in2="BackgroundImageFix" result="shape"/>
<feColorMatrix in="SourceAlpha" type="matrix" values="0 0 0 0 0 0 0 0 0 0 0 0 0 0 0 0 0 0 127 0" result="hardAlpha"/>
<feOffset/>
<feGaussianBlur stdDeviation="12.5"/>
<feComposite in2="hardAlpha" operator="arithmetic" k2="-1" k3="1"/>
<feColorMatrix type="matrix" values="0 0 0 0 0 0 0 0 0 0.866667 0 0 0 0 1 0 0 0 0.25 0"/>
<feBlend mode="normal" in2="shape" result="effect1_innerShadow_1857_327"/>
</filter>
</defs>
</svg>
