<svg width="48" height="48" viewBox="0 0 48 48" fill="none" xmlns="http://www.w3.org/2000/svg">
<path fill-rule="evenodd" clip-rule="evenodd" d="M16.8481 22.5149L10.5168 11.6106L10.516 11.6115L10.5046 11.5918C12.327 9.60934 14.564 8.05274 17.0565 7.03275C19.5489 6.01275 22.2356 5.55442 24.9254 5.69037C27.6151 5.82631 30.2419 6.55319 32.6187 7.81929C34.9956 9.08539 37.0642 10.8596 38.6773 13.0157C38.6863 13.0236 38.6959 13.0307 38.706 13.037C39.5289 14.1613 40.2328 15.368 40.8063 16.6377H40.7924C40.2185 15.3718 39.5146 14.1689 38.6921 13.0485L38.6823 13.0419C39.508 14.1644 40.2151 15.3694 40.7924 16.6377H23.9988C22.311 16.64 20.6763 17.2268 19.3726 18.2984C18.0689 19.3699 17.1768 20.8599 16.8481 22.5149ZM23.9987 31.3268C21.2485 31.3268 18.9566 29.8611 17.6724 27.6615L9.2653 13.1229L9.25384 13.1033C7.43975 15.5588 6.26776 18.4283 5.84423 21.4514C5.42071 24.4746 5.75906 27.5556 6.82859 30.4149C7.89811 33.2741 9.66493 35.8211 11.9687 37.8245C14.2724 39.828 17.0402 41.2245 20.0207 41.8874V41.8833L26.3798 30.8685C25.6195 31.1609 24.8133 31.316 23.9987 31.3268ZM19.4244 27.0526C18.8202 26.148 18.4979 25.0846 18.4982 23.9969C18.5025 22.5399 19.0835 21.1439 20.1141 20.1138C21.1448 19.0837 22.5414 18.5033 23.9987 18.4994C25.0867 18.4994 26.1502 18.8219 27.0548 19.4263C27.9594 20.0306 28.6644 20.8896 29.0806 21.8945C29.4969 22.8994 29.6057 24.0052 29.3934 25.072C29.181 26.1388 28.657 27.1187 27.8875 27.8877C27.1181 28.6567 26.1379 29.1803 25.0708 29.3923C24.0037 29.6043 22.8977 29.4952 21.8926 29.0787C20.8876 28.6622 20.0286 27.9571 19.4244 27.0526ZM41.4946 18.5199C41.742 19.2918 41.9334 20.0805 42.0676 20.8799V20.8758C42.2447 21.9071 42.3337 22.9515 42.3336 23.9978C42.3336 32.7098 36.2503 40.0028 28.0978 41.8637C27.295 42.0478 26.4806 42.1774 25.6603 42.2516C25.1127 42.3015 24.5586 42.3334 23.9987 42.3334C23.3152 42.3372 22.632 42.3028 21.9524 42.2303V42.2286C21.9528 42.2213 21.9528 42.2139 21.9524 42.2066L30.3251 27.6672C30.9878 26.5615 31.3362 25.2959 31.3327 24.0068C31.3327 21.8071 30.3251 19.911 28.7658 18.5199H41.4856C41.7364 19.2957 41.9298 20.0889 42.0643 20.893C41.9302 20.0888 41.7368 19.2956 41.4856 18.5199H41.4946Z" fill="#C1E7ED"/>
<g opacity="0.6" filter="url(#filter0_f_1118_10392)">
<path fill-rule="evenodd" clip-rule="evenodd" d="M16.8481 22.5149L10.5168 11.6106L10.516 11.6115L10.5046 11.5918C12.327 9.60934 14.564 8.05274 17.0565 7.03275C19.5489 6.01275 22.2356 5.55442 24.9254 5.69037C27.6151 5.82631 30.2419 6.55319 32.6187 7.81929C34.9956 9.08539 37.0642 10.8596 38.6773 13.0157C38.6863 13.0236 38.6959 13.0307 38.706 13.037C39.5289 14.1613 40.2328 15.368 40.8063 16.6377H40.7924C40.2185 15.3718 39.5146 14.1689 38.6921 13.0485L38.6823 13.0419C39.508 14.1644 40.2151 15.3694 40.7924 16.6377H23.9988C22.311 16.64 20.6763 17.2268 19.3726 18.2984C18.0689 19.3699 17.1768 20.8599 16.8481 22.5149ZM23.9987 31.3268C21.2485 31.3268 18.9566 29.8611 17.6724 27.6615L9.2653 13.1229L9.25384 13.1033C7.43975 15.5588 6.26776 18.4283 5.84423 21.4514C5.42071 24.4746 5.75906 27.5556 6.82859 30.4149C7.89811 33.2741 9.66493 35.8211 11.9687 37.8245C14.2724 39.828 17.0402 41.2245 20.0207 41.8874V41.8833L26.3798 30.8685C25.6195 31.1609 24.8133 31.316 23.9987 31.3268ZM19.4244 27.0526C18.8202 26.148 18.4979 25.0846 18.4982 23.9969C18.5025 22.5399 19.0835 21.1439 20.1141 20.1138C21.1448 19.0837 22.5414 18.5033 23.9987 18.4994C25.0867 18.4994 26.1502 18.8219 27.0548 19.4263C27.9594 20.0306 28.6644 20.8896 29.0806 21.8945C29.4969 22.8994 29.6057 24.0052 29.3934 25.072C29.181 26.1388 28.657 27.1187 27.8875 27.8877C27.1181 28.6567 26.1379 29.1803 25.0708 29.3923C24.0037 29.6043 22.8977 29.4952 21.8926 29.0787C20.8876 28.6622 20.0286 27.9571 19.4244 27.0526ZM41.4946 18.5199C41.742 19.2918 41.9334 20.0805 42.0676 20.8799V20.8758C42.2447 21.9071 42.3337 22.9515 42.3336 23.9978C42.3336 32.7098 36.2503 40.0028 28.0978 41.8637C27.295 42.0478 26.4806 42.1774 25.6603 42.2516C25.1127 42.3015 24.5586 42.3334 23.9987 42.3334C23.3152 42.3372 22.632 42.3028 21.9524 42.2303V42.2286C21.9528 42.2213 21.9528 42.2139 21.9524 42.2066L30.3251 27.6672C30.9878 26.5615 31.3362 25.2959 31.3327 24.0068C31.3327 21.8071 30.3251 19.911 28.7658 18.5199H41.4856C41.7364 19.2957 41.9298 20.0889 42.0643 20.893C41.9302 20.0888 41.7368 19.2956 41.4856 18.5199H41.4946Z" fill="url(#paint0_linear_1118_10392)"/>
<path fill-rule="evenodd" clip-rule="evenodd" d="M16.8481 22.5149L10.5168 11.6106L10.516 11.6115L10.5046 11.5918C12.327 9.60934 14.564 8.05274 17.0565 7.03275C19.5489 6.01275 22.2356 5.55442 24.9254 5.69037C27.6151 5.82631 30.2419 6.55319 32.6187 7.81929C34.9956 9.08539 37.0642 10.8596 38.6773 13.0157C38.6863 13.0236 38.6959 13.0307 38.706 13.037C39.5289 14.1613 40.2328 15.368 40.8063 16.6377H40.7924C40.2185 15.3718 39.5146 14.1689 38.6921 13.0485L38.6823 13.0419C39.508 14.1644 40.2151 15.3694 40.7924 16.6377H23.9988C22.311 16.64 20.6763 17.2268 19.3726 18.2984C18.0689 19.3699 17.1768 20.8599 16.8481 22.5149ZM23.9987 31.3268C21.2485 31.3268 18.9566 29.8611 17.6724 27.6615L9.2653 13.1229L9.25384 13.1033C7.43975 15.5588 6.26776 18.4283 5.84423 21.4514C5.42071 24.4746 5.75906 27.5556 6.82859 30.4149C7.89811 33.2741 9.66493 35.8211 11.9687 37.8245C14.2724 39.828 17.0402 41.2245 20.0207 41.8874V41.8833L26.3798 30.8685C25.6195 31.1609 24.8133 31.316 23.9987 31.3268ZM19.4244 27.0526C18.8202 26.148 18.4979 25.0846 18.4982 23.9969C18.5025 22.5399 19.0835 21.1439 20.1141 20.1138C21.1448 19.0837 22.5414 18.5033 23.9987 18.4994C25.0867 18.4994 26.1502 18.8219 27.0548 19.4263C27.9594 20.0306 28.6644 20.8896 29.0806 21.8945C29.4969 22.8994 29.6057 24.0052 29.3934 25.072C29.181 26.1388 28.657 27.1187 27.8875 27.8877C27.1181 28.6567 26.1379 29.1803 25.0708 29.3923C24.0037 29.6043 22.8977 29.4952 21.8926 29.0787C20.8876 28.6622 20.0286 27.9571 19.4244 27.0526ZM41.4946 18.5199C41.742 19.2918 41.9334 20.0805 42.0676 20.8799V20.8758C42.2447 21.9071 42.3337 22.9515 42.3336 23.9978C42.3336 32.7098 36.2503 40.0028 28.0978 41.8637C27.295 42.0478 26.4806 42.1774 25.6603 42.2516C25.1127 42.3015 24.5586 42.3334 23.9987 42.3334C23.3152 42.3372 22.632 42.3028 21.9524 42.2303V42.2286C21.9528 42.2213 21.9528 42.2139 21.9524 42.2066L30.3251 27.6672C30.9878 26.5615 31.3362 25.2959 31.3327 24.0068C31.3327 21.8071 30.3251 19.911 28.7658 18.5199H41.4856C41.7364 19.2957 41.9298 20.0889 42.0643 20.893C41.9302 20.0888 41.7368 19.2956 41.4856 18.5199H41.4946Z" fill="url(#paint1_linear_1118_10392)" fill-opacity="0.2"/>
</g>
<defs>
<filter id="filter0_f_1118_10392" x="-1" y="-1" width="50" height="50" filterUnits="userSpaceOnUse" color-interpolation-filters="sRGB">
<feFlood flood-opacity="0" result="BackgroundImageFix"/>
<feBlend mode="normal" in="SourceGraphic" in2="BackgroundImageFix" result="shape"/>
<feGaussianBlur stdDeviation="2.5" result="effect1_foregroundBlur_1118_10392"/>
</filter>
<linearGradient id="paint0_linear_1118_10392" x1="-47.5702" y1="24.0003" x2="42.3337" y2="24.0003" gradientUnits="userSpaceOnUse">
<stop offset="0.575" stop-color="#00DDFF"/>
<stop offset="1" stop-color="#55FF8A"/>
</linearGradient>
<linearGradient id="paint1_linear_1118_10392" x1="24.0003" y1="5.66699" x2="24.0003" y2="42.3337" gradientUnits="userSpaceOnUse">
<stop stop-color="white" stop-opacity="0"/>
<stop offset="1" stop-color="white"/>
</linearGradient>
</defs>
</svg>
