<svg width="51" height="40" viewBox="0 0 51 40" fill="none" xmlns="http://www.w3.org/2000/svg">
<path d="M7.67238 14.4152C6.87982 14.4152 6.29862 14.24 5.92876 13.8896C5.57651 13.5217 5.40039 13.0574 5.40039 12.4967V11.9185C5.40039 11.3579 5.57651 10.9023 5.92876 10.5519C6.29862 10.184 6.87982 10 7.67238 10C8.46493 10 9.03733 10.184 9.38958 10.5519C9.75943 10.9023 9.94436 11.3579 9.94436 11.9185V12.4967C9.94436 13.0574 9.75943 13.5217 9.38958 13.8896C9.03733 14.24 8.46493 14.4152 7.67238 14.4152ZM5.71741 15.887H9.62734V29.6846H5.71741V15.887Z" fill="#C1E7ED"/>
<path d="M20.8851 30C19.6699 30 18.5603 29.7985 17.5564 29.3955C16.5525 28.9926 15.6983 28.3968 14.9938 27.6084C14.2893 26.8025 13.7433 25.8125 13.3559 24.6386C12.9684 23.4472 12.7746 22.0718 12.7746 20.5125C12.7746 18.9531 12.9684 17.5865 13.3559 16.4126C13.7433 15.2212 14.2893 14.2313 14.9938 13.4428C15.6983 12.6369 16.5525 12.0324 17.5564 11.6294C18.5603 11.2265 19.6699 11.025 20.8851 11.025C22.1004 11.025 23.2099 11.2265 24.2138 11.6294C25.2177 12.0324 26.0719 12.6369 26.7764 13.4428C27.4809 14.2313 28.0269 15.2212 28.4144 16.4126C28.8018 17.5865 28.9956 18.9531 28.9956 20.5125C28.9956 22.0718 28.8018 23.4472 28.4144 24.6386C28.0269 25.8125 27.4809 26.8025 26.7764 27.6084C26.0719 28.3968 25.2177 28.9926 24.2138 29.3955C23.2099 29.7985 22.1004 30 20.8851 30ZM20.8851 26.452C22.1004 26.452 23.0426 26.0578 23.7119 25.2694C24.3988 24.4809 24.7422 23.3509 24.7422 21.8791V19.1459C24.7422 17.6741 24.3988 16.544 23.7119 15.7556C23.0426 14.9671 22.1004 14.5729 20.8851 14.5729C19.6699 14.5729 18.7188 14.9671 18.0319 15.7556C17.3626 16.544 17.028 17.6741 17.028 19.1459V21.8791C17.028 23.3509 17.3626 24.4809 18.0319 25.2694C18.7188 26.0578 19.6699 26.452 20.8851 26.452Z" fill="#C1E7ED"/>
<path d="M38.2146 30C36.5942 30 35.2205 29.7284 34.0933 29.1853C32.9661 28.6246 32.0062 27.9063 31.2137 27.0302L33.8555 24.3758C35.106 25.7775 36.6471 26.4783 38.4788 26.4783C39.465 26.4783 40.196 26.2768 40.6715 25.8738C41.147 25.4709 41.3848 24.9365 41.3848 24.2707C41.3848 23.7626 41.2439 23.3421 40.9621 23.0092C40.6803 22.6588 40.1079 22.4223 39.2449 22.2996L37.422 22.0631C35.4671 21.8178 34.0317 21.2308 33.1158 20.3022C32.2176 19.3736 31.7685 18.1384 31.7685 16.5966C31.7685 15.7731 31.927 15.0197 32.244 14.3364C32.561 13.6531 33.0101 13.0661 33.5913 12.5756C34.1902 12.085 34.9123 11.7083 35.7577 11.4455C36.6207 11.1651 37.5981 11.025 38.6901 11.025C40.0815 11.025 41.3055 11.244 42.3623 11.682C43.419 12.12 44.326 12.7595 45.0834 13.6005L42.4151 16.2812C41.9748 15.7731 41.4376 15.3614 40.8036 15.046C40.1871 14.7131 39.4034 14.5466 38.4523 14.5466C37.5541 14.5466 36.8848 14.7043 36.4445 15.0197C36.0042 15.3351 35.7841 15.7731 35.7841 16.3338C35.7841 16.9645 35.9514 17.4201 36.286 17.7004C36.6383 17.9807 37.2019 18.1822 37.9768 18.3049L39.7997 18.594C41.7018 18.8918 43.1108 19.4788 44.0266 20.3548C44.9425 21.2133 45.4004 22.4398 45.4004 24.0342C45.4004 24.9102 45.2419 25.7162 44.9249 26.452C44.6078 27.1879 44.1411 27.8187 43.5247 28.3443C42.9259 28.8699 42.1773 29.2816 41.2791 29.5795C40.3809 29.8598 39.3594 30 38.2146 30Z" fill="#C1E7ED"/>
<g opacity="0.6" filter="url(#filter0_f_1118_10389)">
<path d="M7.67238 14.4152C6.87982 14.4152 6.29862 14.24 5.92876 13.8896C5.57651 13.5217 5.40039 13.0574 5.40039 12.4967V11.9185C5.40039 11.3579 5.57651 10.9023 5.92876 10.5519C6.29862 10.184 6.87982 10 7.67238 10C8.46493 10 9.03733 10.184 9.38958 10.5519C9.75943 10.9023 9.94436 11.3579 9.94436 11.9185V12.4967C9.94436 13.0574 9.75943 13.5217 9.38958 13.8896C9.03733 14.24 8.46493 14.4152 7.67238 14.4152ZM5.71741 15.887H9.62734V29.6846H5.71741V15.887Z" fill="url(#paint0_linear_1118_10389)"/>
<path d="M7.67238 14.4152C6.87982 14.4152 6.29862 14.24 5.92876 13.8896C5.57651 13.5217 5.40039 13.0574 5.40039 12.4967V11.9185C5.40039 11.3579 5.57651 10.9023 5.92876 10.5519C6.29862 10.184 6.87982 10 7.67238 10C8.46493 10 9.03733 10.184 9.38958 10.5519C9.75943 10.9023 9.94436 11.3579 9.94436 11.9185V12.4967C9.94436 13.0574 9.75943 13.5217 9.38958 13.8896C9.03733 14.24 8.46493 14.4152 7.67238 14.4152ZM5.71741 15.887H9.62734V29.6846H5.71741V15.887Z" fill="url(#paint1_linear_1118_10389)" fill-opacity="0.2"/>
<path d="M20.8851 30C19.6699 30 18.5603 29.7985 17.5564 29.3955C16.5525 28.9926 15.6983 28.3968 14.9938 27.6084C14.2893 26.8025 13.7433 25.8125 13.3559 24.6386C12.9684 23.4472 12.7746 22.0718 12.7746 20.5125C12.7746 18.9531 12.9684 17.5865 13.3559 16.4126C13.7433 15.2212 14.2893 14.2313 14.9938 13.4428C15.6983 12.6369 16.5525 12.0324 17.5564 11.6294C18.5603 11.2265 19.6699 11.025 20.8851 11.025C22.1004 11.025 23.2099 11.2265 24.2138 11.6294C25.2177 12.0324 26.0719 12.6369 26.7764 13.4428C27.4809 14.2313 28.0269 15.2212 28.4144 16.4126C28.8018 17.5865 28.9956 18.9531 28.9956 20.5125C28.9956 22.0718 28.8018 23.4472 28.4144 24.6386C28.0269 25.8125 27.4809 26.8025 26.7764 27.6084C26.0719 28.3968 25.2177 28.9926 24.2138 29.3955C23.2099 29.7985 22.1004 30 20.8851 30ZM20.8851 26.452C22.1004 26.452 23.0426 26.0578 23.7119 25.2694C24.3988 24.4809 24.7422 23.3509 24.7422 21.8791V19.1459C24.7422 17.6741 24.3988 16.544 23.7119 15.7556C23.0426 14.9671 22.1004 14.5729 20.8851 14.5729C19.6699 14.5729 18.7188 14.9671 18.0319 15.7556C17.3626 16.544 17.028 17.6741 17.028 19.1459V21.8791C17.028 23.3509 17.3626 24.4809 18.0319 25.2694C18.7188 26.0578 19.6699 26.452 20.8851 26.452Z" fill="url(#paint2_linear_1118_10389)"/>
<path d="M20.8851 30C19.6699 30 18.5603 29.7985 17.5564 29.3955C16.5525 28.9926 15.6983 28.3968 14.9938 27.6084C14.2893 26.8025 13.7433 25.8125 13.3559 24.6386C12.9684 23.4472 12.7746 22.0718 12.7746 20.5125C12.7746 18.9531 12.9684 17.5865 13.3559 16.4126C13.7433 15.2212 14.2893 14.2313 14.9938 13.4428C15.6983 12.6369 16.5525 12.0324 17.5564 11.6294C18.5603 11.2265 19.6699 11.025 20.8851 11.025C22.1004 11.025 23.2099 11.2265 24.2138 11.6294C25.2177 12.0324 26.0719 12.6369 26.7764 13.4428C27.4809 14.2313 28.0269 15.2212 28.4144 16.4126C28.8018 17.5865 28.9956 18.9531 28.9956 20.5125C28.9956 22.0718 28.8018 23.4472 28.4144 24.6386C28.0269 25.8125 27.4809 26.8025 26.7764 27.6084C26.0719 28.3968 25.2177 28.9926 24.2138 29.3955C23.2099 29.7985 22.1004 30 20.8851 30ZM20.8851 26.452C22.1004 26.452 23.0426 26.0578 23.7119 25.2694C24.3988 24.4809 24.7422 23.3509 24.7422 21.8791V19.1459C24.7422 17.6741 24.3988 16.544 23.7119 15.7556C23.0426 14.9671 22.1004 14.5729 20.8851 14.5729C19.6699 14.5729 18.7188 14.9671 18.0319 15.7556C17.3626 16.544 17.028 17.6741 17.028 19.1459V21.8791C17.028 23.3509 17.3626 24.4809 18.0319 25.2694C18.7188 26.0578 19.6699 26.452 20.8851 26.452Z" fill="url(#paint3_linear_1118_10389)" fill-opacity="0.2"/>
<path d="M38.2146 30C36.5942 30 35.2205 29.7284 34.0933 29.1853C32.9661 28.6246 32.0062 27.9063 31.2137 27.0302L33.8555 24.3758C35.106 25.7775 36.6471 26.4783 38.4788 26.4783C39.465 26.4783 40.196 26.2768 40.6715 25.8738C41.147 25.4709 41.3848 24.9365 41.3848 24.2707C41.3848 23.7626 41.2439 23.3421 40.9621 23.0092C40.6803 22.6588 40.1079 22.4223 39.2449 22.2996L37.422 22.0631C35.4671 21.8178 34.0317 21.2308 33.1158 20.3022C32.2176 19.3736 31.7685 18.1384 31.7685 16.5966C31.7685 15.7731 31.927 15.0197 32.244 14.3364C32.561 13.6531 33.0101 13.0661 33.5913 12.5756C34.1902 12.085 34.9123 11.7083 35.7577 11.4455C36.6207 11.1651 37.5981 11.025 38.6901 11.025C40.0815 11.025 41.3055 11.244 42.3623 11.682C43.419 12.12 44.326 12.7595 45.0834 13.6005L42.4151 16.2812C41.9748 15.7731 41.4376 15.3614 40.8036 15.046C40.1871 14.7131 39.4034 14.5466 38.4523 14.5466C37.5541 14.5466 36.8848 14.7043 36.4445 15.0197C36.0042 15.3351 35.7841 15.7731 35.7841 16.3338C35.7841 16.9645 35.9514 17.4201 36.286 17.7004C36.6383 17.9807 37.2019 18.1822 37.9768 18.3049L39.7997 18.594C41.7018 18.8918 43.1108 19.4788 44.0266 20.3548C44.9425 21.2133 45.4004 22.4398 45.4004 24.0342C45.4004 24.9102 45.2419 25.7162 44.9249 26.452C44.6078 27.1879 44.1411 27.8187 43.5247 28.3443C42.9259 28.8699 42.1773 29.2816 41.2791 29.5795C40.3809 29.8598 39.3594 30 38.2146 30Z" fill="url(#paint4_linear_1118_10389)"/>
<path d="M38.2146 30C36.5942 30 35.2205 29.7284 34.0933 29.1853C32.9661 28.6246 32.0062 27.9063 31.2137 27.0302L33.8555 24.3758C35.106 25.7775 36.6471 26.4783 38.4788 26.4783C39.465 26.4783 40.196 26.2768 40.6715 25.8738C41.147 25.4709 41.3848 24.9365 41.3848 24.2707C41.3848 23.7626 41.2439 23.3421 40.9621 23.0092C40.6803 22.6588 40.1079 22.4223 39.2449 22.2996L37.422 22.0631C35.4671 21.8178 34.0317 21.2308 33.1158 20.3022C32.2176 19.3736 31.7685 18.1384 31.7685 16.5966C31.7685 15.7731 31.927 15.0197 32.244 14.3364C32.561 13.6531 33.0101 13.0661 33.5913 12.5756C34.1902 12.085 34.9123 11.7083 35.7577 11.4455C36.6207 11.1651 37.5981 11.025 38.6901 11.025C40.0815 11.025 41.3055 11.244 42.3623 11.682C43.419 12.12 44.326 12.7595 45.0834 13.6005L42.4151 16.2812C41.9748 15.7731 41.4376 15.3614 40.8036 15.046C40.1871 14.7131 39.4034 14.5466 38.4523 14.5466C37.5541 14.5466 36.8848 14.7043 36.4445 15.0197C36.0042 15.3351 35.7841 15.7731 35.7841 16.3338C35.7841 16.9645 35.9514 17.4201 36.286 17.7004C36.6383 17.9807 37.2019 18.1822 37.9768 18.3049L39.7997 18.594C41.7018 18.8918 43.1108 19.4788 44.0266 20.3548C44.9425 21.2133 45.4004 22.4398 45.4004 24.0342C45.4004 24.9102 45.2419 25.7162 44.9249 26.452C44.6078 27.1879 44.1411 27.8187 43.5247 28.3443C42.9259 28.8699 42.1773 29.2816 41.2791 29.5795C40.3809 29.8598 39.3594 30 38.2146 30Z" fill="url(#paint5_linear_1118_10389)" fill-opacity="0.2"/>
</g>
<defs>
<filter id="filter0_f_1118_10389" x="0.400391" y="-5" width="50" height="50" filterUnits="userSpaceOnUse" color-interpolation-filters="sRGB">
<feFlood flood-opacity="0" result="BackgroundImageFix"/>
<feBlend mode="normal" in="SourceGraphic" in2="BackgroundImageFix" result="shape"/>
<feGaussianBlur stdDeviation="2.5" result="effect1_foregroundBlur_1118_10389"/>
</filter>
<linearGradient id="paint0_linear_1118_10389" x1="-52.6765" y1="20" x2="45.4004" y2="20" gradientUnits="userSpaceOnUse">
<stop offset="0.575" stop-color="#00DDFF"/>
<stop offset="1" stop-color="#55FF8A"/>
</linearGradient>
<linearGradient id="paint1_linear_1118_10389" x1="25.4004" y1="10" x2="25.4004" y2="30" gradientUnits="userSpaceOnUse">
<stop stop-color="white" stop-opacity="0"/>
<stop offset="1" stop-color="white"/>
</linearGradient>
<linearGradient id="paint2_linear_1118_10389" x1="-52.6765" y1="20" x2="45.4004" y2="20" gradientUnits="userSpaceOnUse">
<stop offset="0.575" stop-color="#00DDFF"/>
<stop offset="1" stop-color="#55FF8A"/>
</linearGradient>
<linearGradient id="paint3_linear_1118_10389" x1="25.4004" y1="10" x2="25.4004" y2="30" gradientUnits="userSpaceOnUse">
<stop stop-color="white" stop-opacity="0"/>
<stop offset="1" stop-color="white"/>
</linearGradient>
<linearGradient id="paint4_linear_1118_10389" x1="-52.6765" y1="20" x2="45.4004" y2="20" gradientUnits="userSpaceOnUse">
<stop offset="0.575" stop-color="#00DDFF"/>
<stop offset="1" stop-color="#55FF8A"/>
</linearGradient>
<linearGradient id="paint5_linear_1118_10389" x1="25.4004" y1="10" x2="25.4004" y2="30" gradientUnits="userSpaceOnUse">
<stop stop-color="white" stop-opacity="0"/>
<stop offset="1" stop-color="white"/>
</linearGradient>
</defs>
</svg>
