<svg width="57" height="56" viewBox="0 0 57 56" fill="none" xmlns="http://www.w3.org/2000/svg">
<g filter="url(#filter0_i_1857_1735)">
<path d="M2.72022 48.7378L7.99278 53.7811C9.48157 55.2052 11.4624 56 13.5226 56H42.8738C44.9955 56 47.0304 55.1571 48.5306 53.6569L53.9069 48.2806C55.4071 46.7804 56.25 44.7455 56.25 42.6238V12.9387C56.25 10.817 55.4071 8.78215 53.9069 7.28185L48.9681 2.34314C47.4679 0.842853 45.433 0 43.3113 0H13.1887C11.067 0 9.03215 0.842853 7.53186 2.34314L2.59315 7.28185C1.09285 8.78215 0.25 10.817 0.25 12.9387V42.9567C0.25 45.1401 1.14241 47.2286 2.72022 48.7378Z" fill="#090D16"/>
</g>
<path d="M8.684 53.0585L3.41144 48.0152C2.03086 46.6946 1.25 44.8671 1.25 42.9567V12.9387C1.25 11.0822 1.9875 9.30172 3.30025 7.98896L8.23896 3.05025C9.55172 1.7375 11.3322 1 13.1887 1H43.3113C45.1678 1 46.9483 1.7375 48.261 3.05025L53.1997 7.98896C54.5125 9.30172 55.25 11.0822 55.25 12.9387V42.6238C55.25 44.4803 54.5125 46.2608 53.1997 47.5735L47.8235 52.9497C46.5108 54.2625 44.7303 55 42.8738 55H13.5226C11.7199 55 9.98669 54.3045 8.684 53.0585Z" stroke="#3BFFEF" stroke-opacity="0.25" stroke-width="2"/>
<path fill-rule="evenodd" clip-rule="evenodd" d="M17 27C17 20.9249 21.9249 16 28 16C34.0751 16 39 20.9249 39 27V36C39 38.2091 37.2091 40 35 40C33.494 40 32.1824 39.1677 31.5 37.938C30.8176 39.1677 29.506 40 28 40C26.494 40 25.1824 39.1677 24.5 37.938C23.8176 39.1677 22.506 40 21 40C18.7909 40 17 38.2091 17 36V27ZM28 33C29.1046 33 30 32.1046 30 31C30 29.8954 29.1046 29 28 29C26.8954 29 26 29.8954 26 31C26 32.1046 26.8954 33 28 33ZM23 26C23 27.1046 23.8954 28 25 28C26.1046 28 27 27.1046 27 26H23ZM31 28C29.8954 28 29 27.1046 29 26H33C33 27.1046 32.1046 28 31 28Z" fill="#3BFFEF"/>
<defs>
<filter id="filter0_i_1857_1735" x="0.25" y="0" width="56" height="56" filterUnits="userSpaceOnUse" color-interpolation-filters="sRGB">
<feFlood flood-opacity="0" result="BackgroundImageFix"/>
<feBlend mode="normal" in="SourceGraphic" in2="BackgroundImageFix" result="shape"/>
<feColorMatrix in="SourceAlpha" type="matrix" values="0 0 0 0 0 0 0 0 0 0 0 0 0 0 0 0 0 0 127 0" result="hardAlpha"/>
<feOffset/>
<feGaussianBlur stdDeviation="12.5"/>
<feComposite in2="hardAlpha" operator="arithmetic" k2="-1" k3="1"/>
<feColorMatrix type="matrix" values="0 0 0 0 0 0 0 0 0 0.866667 0 0 0 0 1 0 0 0 0.25 0"/>
<feBlend mode="normal" in2="shape" result="effect1_innerShadow_1857_1735"/>
</filter>
</defs>
</svg>
