<svg width="51" height="40" viewBox="0 0 51 40" fill="none" xmlns="http://www.w3.org/2000/svg">
<path fill-rule="evenodd" clip-rule="evenodd" d="M42.145 16.4856C41.8143 19.3351 40.8772 22.0481 39.7931 24.6829L40.0687 25.1513C40.2157 25.1709 40.3811 25.1318 40.5281 25.0538C42.2736 23.7266 43.4312 21.7163 44.2213 19.6279C44.6072 18.5935 46.0036 13.5775 45.1033 12.7968C43.7252 11.5672 40.7118 11.5672 38.9295 11.7624C37.0553 11.9771 35.2179 12.5626 33.5458 13.4799C33.0376 13.7498 32.8106 14.0694 32.5047 14.5C32.4787 14.5365 32.4522 14.5738 32.425 14.6119C32.5352 14.7485 32.8292 15.0023 33.0129 14.9827C33.0546 14.9776 33.0996 14.972 33.1478 14.966C34.9283 14.7449 41.0474 13.9848 41.9061 15.3341C42.1634 15.7439 42.2001 15.9391 42.145 16.4856ZM9.63868 20.3183C13.8666 25.1511 18.6658 28.0979 23.6417 28.3336H24.9897C27.9711 27.9211 30.7511 26.4673 33.535 24.4439C34.927 23.4419 36.2151 22.0471 37.4929 20.613C37.6694 20.4166 38.3654 19.4932 38.5628 19.1593C38.7602 18.8253 38.8641 18.3342 38.7082 17.8627C38.542 17.4108 38.2408 17.2144 37.9603 17.3912C34.8647 19.7486 31.6652 21.556 28.3618 22.4204C24.5183 23.4419 22.5925 23.3241 18.7697 22.1061C14.3133 20.672 9.8776 17.843 5.98212 13.4425C5.93018 13.3835 5.87824 13.3639 5.8263 13.3442C5.6497 13.2657 5.43155 13.6389 5.40039 13.9533C5.43155 14.1104 5.47311 14.2676 5.53543 14.4051C6.78199 16.6643 8.16359 18.6485 9.63868 20.3183Z" fill="#C1E7ED"/>
<g opacity="0.6" filter="url(#filter0_f_1118_10401)">
<path fill-rule="evenodd" clip-rule="evenodd" d="M42.145 16.4856C41.8143 19.3351 40.8772 22.0481 39.7931 24.6829L40.0687 25.1513C40.2157 25.1709 40.3811 25.1318 40.5281 25.0538C42.2736 23.7266 43.4312 21.7163 44.2213 19.6279C44.6072 18.5935 46.0036 13.5775 45.1033 12.7968C43.7252 11.5672 40.7118 11.5672 38.9295 11.7624C37.0553 11.9771 35.2179 12.5626 33.5458 13.4799C33.0376 13.7498 32.8106 14.0694 32.5047 14.5C32.4787 14.5365 32.4522 14.5738 32.425 14.6119C32.5352 14.7485 32.8292 15.0023 33.0129 14.9827C33.0546 14.9776 33.0996 14.972 33.1478 14.966C34.9283 14.7449 41.0474 13.9848 41.9061 15.3341C42.1634 15.7439 42.2001 15.9391 42.145 16.4856ZM9.63868 20.3183C13.8666 25.1511 18.6658 28.0979 23.6417 28.3336H24.9897C27.9711 27.9211 30.7511 26.4673 33.535 24.4439C34.927 23.4419 36.2151 22.0471 37.4929 20.613C37.6694 20.4166 38.3654 19.4932 38.5628 19.1593C38.7602 18.8253 38.8641 18.3342 38.7082 17.8627C38.542 17.4108 38.2408 17.2144 37.9603 17.3912C34.8647 19.7486 31.6652 21.556 28.3618 22.4204C24.5183 23.4419 22.5925 23.3241 18.7697 22.1061C14.3133 20.672 9.8776 17.843 5.98212 13.4425C5.93018 13.3835 5.87824 13.3639 5.8263 13.3442C5.6497 13.2657 5.43155 13.6389 5.40039 13.9533C5.43155 14.1104 5.47311 14.2676 5.53543 14.4051C6.78199 16.6643 8.16359 18.6485 9.63868 20.3183Z" fill="url(#paint0_linear_1118_10401)"/>
<path fill-rule="evenodd" clip-rule="evenodd" d="M42.145 16.4856C41.8143 19.3351 40.8772 22.0481 39.7931 24.6829L40.0687 25.1513C40.2157 25.1709 40.3811 25.1318 40.5281 25.0538C42.2736 23.7266 43.4312 21.7163 44.2213 19.6279C44.6072 18.5935 46.0036 13.5775 45.1033 12.7968C43.7252 11.5672 40.7118 11.5672 38.9295 11.7624C37.0553 11.9771 35.2179 12.5626 33.5458 13.4799C33.0376 13.7498 32.8106 14.0694 32.5047 14.5C32.4787 14.5365 32.4522 14.5738 32.425 14.6119C32.5352 14.7485 32.8292 15.0023 33.0129 14.9827C33.0546 14.9776 33.0996 14.972 33.1478 14.966C34.9283 14.7449 41.0474 13.9848 41.9061 15.3341C42.1634 15.7439 42.2001 15.9391 42.145 16.4856ZM9.63868 20.3183C13.8666 25.1511 18.6658 28.0979 23.6417 28.3336H24.9897C27.9711 27.9211 30.7511 26.4673 33.535 24.4439C34.927 23.4419 36.2151 22.0471 37.4929 20.613C37.6694 20.4166 38.3654 19.4932 38.5628 19.1593C38.7602 18.8253 38.8641 18.3342 38.7082 17.8627C38.542 17.4108 38.2408 17.2144 37.9603 17.3912C34.8647 19.7486 31.6652 21.556 28.3618 22.4204C24.5183 23.4419 22.5925 23.3241 18.7697 22.1061C14.3133 20.672 9.8776 17.843 5.98212 13.4425C5.93018 13.3835 5.87824 13.3639 5.8263 13.3442C5.6497 13.2657 5.43155 13.6389 5.40039 13.9533C5.43155 14.1104 5.47311 14.2676 5.53543 14.4051C6.78199 16.6643 8.16359 18.6485 9.63868 20.3183Z" fill="url(#paint1_linear_1118_10401)" fill-opacity="0.2"/>
</g>
<defs>
<filter id="filter0_f_1118_10401" x="0.400391" y="-5" width="50" height="50" filterUnits="userSpaceOnUse" color-interpolation-filters="sRGB">
<feFlood flood-opacity="0" result="BackgroundImageFix"/>
<feBlend mode="normal" in="SourceGraphic" in2="BackgroundImageFix" result="shape"/>
<feGaussianBlur stdDeviation="2.5" result="effect1_foregroundBlur_1118_10401"/>
</filter>
<linearGradient id="paint0_linear_1118_10401" x1="-52.6765" y1="20.0003" x2="45.4004" y2="20.0003" gradientUnits="userSpaceOnUse">
<stop offset="0.575" stop-color="#00DDFF"/>
<stop offset="1" stop-color="#55FF8A"/>
</linearGradient>
<linearGradient id="paint1_linear_1118_10401" x1="25.4004" y1="11.667" x2="25.4004" y2="28.3337" gradientUnits="userSpaceOnUse">
<stop stop-color="white" stop-opacity="0"/>
<stop offset="1" stop-color="white"/>
</linearGradient>
</defs>
</svg>
