<svg width="48" height="48" viewBox="0 0 48 48" fill="none" xmlns="http://www.w3.org/2000/svg">
<path d="M40.708 15.0166C37.6722 9.0807 31.1191 5.66699 23.9936 5.66699C15.2034 5.66699 7.84201 11.8528 6.06415 20.1305C7.98696 16.6939 12.4405 14.2804 17.1174 14.2804C22.9797 14.2804 26.0725 17.8974 26.1583 17.9898C27.7853 19.7491 28.5988 21.7147 28.5988 24.1327C28.5988 24.9015 28.2061 26.0413 27.4813 26.9838C27.3652 27.1317 27.0087 27.3416 27.0087 27.797C27.0087 28.171 27.252 28.5303 27.6847 28.8319C29.745 30.2637 33.6284 30.0745 33.6387 30.0745C35.1646 30.0703 36.6613 29.6573 37.9732 28.8785C39.2972 28.1056 40.3961 27.0002 41.1608 25.6719C41.9255 24.3435 42.3296 22.8385 42.3328 21.3059C42.3698 18.0955 41.1865 15.9613 40.708 15.0166ZM20.8032 40.238C19.4317 39.3847 18.2562 38.2511 17.354 36.9115C14.918 33.4062 14.8218 29.8446 15.8675 26.8582C16.6112 24.513 18.0879 22.4681 20.0807 21.0243C24.444 17.683 27.0945 20.6066 27.4066 20.9503C27.3038 20.6923 27.183 20.4418 27.045 20.2008C26.3616 19.0232 25.2701 17.5093 22.8621 16.2452C20.3684 14.9375 17.6417 14.871 17.1203 14.871C14.2575 14.871 11.3593 15.832 9.16801 17.5093C7.70667 18.6255 6.01238 20.5046 5.70399 23.0386C5.62412 23.9486 5.50061 27.6809 7.40494 31.7814C9.01115 35.2068 11.6382 38.0517 14.9258 39.9258C18.2134 41.8 22.0005 42.6116 25.7678 42.2494C22.9486 41.7601 20.8979 40.2802 20.8032 40.238ZM39.3451 32.9693C39.258 32.9141 39.1576 32.8834 39.0545 32.8804C38.9515 32.8774 38.8495 32.9023 38.7593 32.9523C38.2705 33.2078 37.7664 33.4329 37.2499 33.6265C35.605 34.2415 33.8626 34.555 32.1064 34.552C25.327 34.552 19.4218 29.8904 19.4218 23.9072C19.4299 23.22 19.5949 22.5437 19.904 21.9298C18.7239 22.9701 17.7513 24.2242 17.0375 25.6259C15.9341 27.797 14.597 32.1406 18.0233 36.8369C18.5047 37.4955 19.7242 39.0545 22.1647 40.3607C23.9078 41.2958 25.7885 41.8103 27.4673 41.8103C30.066 41.8103 36.0038 39.3384 39.5218 33.7625C39.5625 33.6989 39.5903 33.6278 39.6034 33.5535C39.6166 33.4791 39.6149 33.4029 39.5985 33.3291C39.582 33.2554 39.5512 33.1857 39.5077 33.1239C39.4642 33.0622 39.4089 33.0096 39.3451 32.9693Z" fill="#C1E7ED"/>
<g opacity="0.6" filter="url(#filter0_f_1118_10398)">
<path d="M40.708 15.0166C37.6722 9.0807 31.1191 5.66699 23.9936 5.66699C15.2034 5.66699 7.84201 11.8528 6.06415 20.1305C7.98696 16.6939 12.4405 14.2804 17.1174 14.2804C22.9797 14.2804 26.0725 17.8974 26.1583 17.9898C27.7853 19.7491 28.5988 21.7147 28.5988 24.1327C28.5988 24.9015 28.2061 26.0413 27.4813 26.9838C27.3652 27.1317 27.0087 27.3416 27.0087 27.797C27.0087 28.171 27.252 28.5303 27.6847 28.8319C29.745 30.2637 33.6284 30.0745 33.6387 30.0745C35.1646 30.0703 36.6613 29.6573 37.9732 28.8785C39.2972 28.1056 40.3961 27.0002 41.1608 25.6719C41.9255 24.3435 42.3296 22.8385 42.3328 21.3059C42.3698 18.0955 41.1865 15.9613 40.708 15.0166ZM20.8032 40.238C19.4317 39.3847 18.2562 38.2511 17.354 36.9115C14.918 33.4062 14.8218 29.8446 15.8675 26.8582C16.6112 24.513 18.0879 22.4681 20.0807 21.0243C24.444 17.683 27.0945 20.6066 27.4066 20.9503C27.3038 20.6923 27.183 20.4418 27.045 20.2008C26.3616 19.0232 25.2701 17.5093 22.8621 16.2452C20.3684 14.9375 17.6417 14.871 17.1203 14.871C14.2575 14.871 11.3593 15.832 9.16801 17.5093C7.70667 18.6255 6.01238 20.5046 5.70399 23.0386C5.62412 23.9486 5.50061 27.6809 7.40494 31.7814C9.01115 35.2068 11.6382 38.0517 14.9258 39.9258C18.2134 41.8 22.0005 42.6116 25.7678 42.2494C22.9486 41.7601 20.8979 40.2802 20.8032 40.238ZM39.3451 32.9693C39.258 32.9141 39.1576 32.8834 39.0545 32.8804C38.9515 32.8774 38.8495 32.9023 38.7593 32.9523C38.2705 33.2078 37.7664 33.4329 37.2499 33.6265C35.605 34.2415 33.8626 34.555 32.1064 34.552C25.327 34.552 19.4218 29.8904 19.4218 23.9072C19.4299 23.22 19.5949 22.5437 19.904 21.9298C18.7239 22.9701 17.7513 24.2242 17.0375 25.6259C15.9341 27.797 14.597 32.1406 18.0233 36.8369C18.5047 37.4955 19.7242 39.0545 22.1647 40.3607C23.9078 41.2958 25.7885 41.8103 27.4673 41.8103C30.066 41.8103 36.0038 39.3384 39.5218 33.7625C39.5625 33.6989 39.5903 33.6278 39.6034 33.5535C39.6166 33.4791 39.6149 33.4029 39.5985 33.3291C39.582 33.2554 39.5512 33.1857 39.5077 33.1239C39.4642 33.0622 39.4089 33.0096 39.3451 32.9693Z" fill="url(#paint0_linear_1118_10398)"/>
<path d="M40.708 15.0166C37.6722 9.0807 31.1191 5.66699 23.9936 5.66699C15.2034 5.66699 7.84201 11.8528 6.06415 20.1305C7.98696 16.6939 12.4405 14.2804 17.1174 14.2804C22.9797 14.2804 26.0725 17.8974 26.1583 17.9898C27.7853 19.7491 28.5988 21.7147 28.5988 24.1327C28.5988 24.9015 28.2061 26.0413 27.4813 26.9838C27.3652 27.1317 27.0087 27.3416 27.0087 27.797C27.0087 28.171 27.252 28.5303 27.6847 28.8319C29.745 30.2637 33.6284 30.0745 33.6387 30.0745C35.1646 30.0703 36.6613 29.6573 37.9732 28.8785C39.2972 28.1056 40.3961 27.0002 41.1608 25.6719C41.9255 24.3435 42.3296 22.8385 42.3328 21.3059C42.3698 18.0955 41.1865 15.9613 40.708 15.0166ZM20.8032 40.238C19.4317 39.3847 18.2562 38.2511 17.354 36.9115C14.918 33.4062 14.8218 29.8446 15.8675 26.8582C16.6112 24.513 18.0879 22.4681 20.0807 21.0243C24.444 17.683 27.0945 20.6066 27.4066 20.9503C27.3038 20.6923 27.183 20.4418 27.045 20.2008C26.3616 19.0232 25.2701 17.5093 22.8621 16.2452C20.3684 14.9375 17.6417 14.871 17.1203 14.871C14.2575 14.871 11.3593 15.832 9.16801 17.5093C7.70667 18.6255 6.01238 20.5046 5.70399 23.0386C5.62412 23.9486 5.50061 27.6809 7.40494 31.7814C9.01115 35.2068 11.6382 38.0517 14.9258 39.9258C18.2134 41.8 22.0005 42.6116 25.7678 42.2494C22.9486 41.7601 20.8979 40.2802 20.8032 40.238ZM39.3451 32.9693C39.258 32.9141 39.1576 32.8834 39.0545 32.8804C38.9515 32.8774 38.8495 32.9023 38.7593 32.9523C38.2705 33.2078 37.7664 33.4329 37.2499 33.6265C35.605 34.2415 33.8626 34.555 32.1064 34.552C25.327 34.552 19.4218 29.8904 19.4218 23.9072C19.4299 23.22 19.5949 22.5437 19.904 21.9298C18.7239 22.9701 17.7513 24.2242 17.0375 25.6259C15.9341 27.797 14.597 32.1406 18.0233 36.8369C18.5047 37.4955 19.7242 39.0545 22.1647 40.3607C23.9078 41.2958 25.7885 41.8103 27.4673 41.8103C30.066 41.8103 36.0038 39.3384 39.5218 33.7625C39.5625 33.6989 39.5903 33.6278 39.6034 33.5535C39.6166 33.4791 39.6149 33.4029 39.5985 33.3291C39.582 33.2554 39.5512 33.1857 39.5077 33.1239C39.4642 33.0622 39.4089 33.0096 39.3451 32.9693Z" fill="url(#paint1_linear_1118_10398)" fill-opacity="0.2"/>
</g>
<defs>
<filter id="filter0_f_1118_10398" x="-1" y="-1" width="50" height="50" filterUnits="userSpaceOnUse" color-interpolation-filters="sRGB">
<feFlood flood-opacity="0" result="BackgroundImageFix"/>
<feBlend mode="normal" in="SourceGraphic" in2="BackgroundImageFix" result="shape"/>
<feGaussianBlur stdDeviation="2.5" result="effect1_foregroundBlur_1118_10398"/>
</filter>
<linearGradient id="paint0_linear_1118_10398" x1="-47.5702" y1="24.0003" x2="42.3337" y2="24.0003" gradientUnits="userSpaceOnUse">
<stop offset="0.575" stop-color="#00DDFF"/>
<stop offset="1" stop-color="#55FF8A"/>
</linearGradient>
<linearGradient id="paint1_linear_1118_10398" x1="24.0003" y1="5.66699" x2="24.0003" y2="42.3337" gradientUnits="userSpaceOnUse">
<stop stop-color="white" stop-opacity="0"/>
<stop offset="1" stop-color="white"/>
</linearGradient>
</defs>
</svg>
