<svg width="51" height="40" viewBox="0 0 51 40" fill="none" xmlns="http://www.w3.org/2000/svg">
<path d="M5.40039 31.6663C5.67312 28.3712 6.66585 25.3379 8.37857 22.5663C10.0913 19.7947 12.3713 17.5928 15.2186 15.9607L11.8549 10.0479C11.6731 9.77077 11.6277 9.47821 11.7186 9.17026C11.8095 8.8623 12.0065 8.63134 12.3095 8.47736C12.5519 8.32338 12.8246 8.29259 13.1277 8.38498C13.4307 8.47736 13.6731 8.66213 13.8549 8.93929L17.2186 14.852C19.8246 13.7434 22.5519 13.1891 25.4004 13.1891C28.2489 13.1891 30.9761 13.7434 33.5822 14.852L36.9458 8.93929C37.1277 8.66213 37.3701 8.47736 37.6731 8.38498C37.9762 8.29259 38.2489 8.32338 38.4913 8.47736C38.7943 8.63134 38.9913 8.8623 39.0822 9.17026C39.1731 9.47821 39.1277 9.77077 38.9458 10.0479L35.5822 15.9607C38.4307 17.5928 40.7107 19.7947 42.4222 22.5663C44.1337 25.3379 45.1265 28.3712 45.4004 31.6663H5.40039ZM16.3095 26.5851C16.9458 26.5851 17.484 26.3615 17.924 25.9144C18.364 25.4672 18.5834 24.9209 18.5822 24.2754C18.5822 23.6287 18.3622 23.0818 17.9222 22.6346C17.4822 22.1875 16.9446 21.9645 16.3095 21.9658C15.6731 21.9658 15.1349 22.1893 14.6949 22.6365C14.2549 23.0836 14.0355 23.63 14.0368 24.2754C14.0368 24.9221 14.2568 25.4691 14.6968 25.9162C15.1368 26.3634 15.6743 26.5863 16.3095 26.5851ZM34.4913 26.5851C35.1277 26.5851 35.6658 26.3615 36.1058 25.9144C36.5458 25.4672 36.7652 24.9209 36.764 24.2754C36.764 23.6287 36.544 23.0818 36.104 22.6346C35.664 22.1875 35.1265 21.9645 34.4913 21.9658C33.8549 21.9658 33.3168 22.1893 32.8768 22.6365C32.4368 23.0836 32.2174 23.63 32.2186 24.2754C32.2186 24.9221 32.4386 25.4691 32.8786 25.9162C33.3186 26.3634 33.8561 26.5863 34.4913 26.5851Z" fill="#C1E7ED"/>
<g opacity="0.6" filter="url(#filter0_f_1118_10386)">
<path d="M5.40039 31.6663C5.67312 28.3712 6.66585 25.3379 8.37857 22.5663C10.0913 19.7947 12.3713 17.5928 15.2186 15.9607L11.8549 10.0479C11.6731 9.77077 11.6277 9.47821 11.7186 9.17026C11.8095 8.8623 12.0065 8.63134 12.3095 8.47736C12.5519 8.32338 12.8246 8.29259 13.1277 8.38498C13.4307 8.47736 13.6731 8.66213 13.8549 8.93929L17.2186 14.852C19.8246 13.7434 22.5519 13.1891 25.4004 13.1891C28.2489 13.1891 30.9761 13.7434 33.5822 14.852L36.9458 8.93929C37.1277 8.66213 37.3701 8.47736 37.6731 8.38498C37.9762 8.29259 38.2489 8.32338 38.4913 8.47736C38.7943 8.63134 38.9913 8.8623 39.0822 9.17026C39.1731 9.47821 39.1277 9.77077 38.9458 10.0479L35.5822 15.9607C38.4307 17.5928 40.7107 19.7947 42.4222 22.5663C44.1337 25.3379 45.1265 28.3712 45.4004 31.6663H5.40039ZM16.3095 26.5851C16.9458 26.5851 17.484 26.3615 17.924 25.9144C18.364 25.4672 18.5834 24.9209 18.5822 24.2754C18.5822 23.6287 18.3622 23.0818 17.9222 22.6346C17.4822 22.1875 16.9446 21.9645 16.3095 21.9658C15.6731 21.9658 15.1349 22.1893 14.6949 22.6365C14.2549 23.0836 14.0355 23.63 14.0368 24.2754C14.0368 24.9221 14.2568 25.4691 14.6968 25.9162C15.1368 26.3634 15.6743 26.5863 16.3095 26.5851ZM34.4913 26.5851C35.1277 26.5851 35.6658 26.3615 36.1058 25.9144C36.5458 25.4672 36.7652 24.9209 36.764 24.2754C36.764 23.6287 36.544 23.0818 36.104 22.6346C35.664 22.1875 35.1265 21.9645 34.4913 21.9658C33.8549 21.9658 33.3168 22.1893 32.8768 22.6365C32.4368 23.0836 32.2174 23.63 32.2186 24.2754C32.2186 24.9221 32.4386 25.4691 32.8786 25.9162C33.3186 26.3634 33.8561 26.5863 34.4913 26.5851Z" fill="url(#paint0_linear_1118_10386)"/>
<path d="M5.40039 31.6663C5.67312 28.3712 6.66585 25.3379 8.37857 22.5663C10.0913 19.7947 12.3713 17.5928 15.2186 15.9607L11.8549 10.0479C11.6731 9.77077 11.6277 9.47821 11.7186 9.17026C11.8095 8.8623 12.0065 8.63134 12.3095 8.47736C12.5519 8.32338 12.8246 8.29259 13.1277 8.38498C13.4307 8.47736 13.6731 8.66213 13.8549 8.93929L17.2186 14.852C19.8246 13.7434 22.5519 13.1891 25.4004 13.1891C28.2489 13.1891 30.9761 13.7434 33.5822 14.852L36.9458 8.93929C37.1277 8.66213 37.3701 8.47736 37.6731 8.38498C37.9762 8.29259 38.2489 8.32338 38.4913 8.47736C38.7943 8.63134 38.9913 8.8623 39.0822 9.17026C39.1731 9.47821 39.1277 9.77077 38.9458 10.0479L35.5822 15.9607C38.4307 17.5928 40.7107 19.7947 42.4222 22.5663C44.1337 25.3379 45.1265 28.3712 45.4004 31.6663H5.40039ZM16.3095 26.5851C16.9458 26.5851 17.484 26.3615 17.924 25.9144C18.364 25.4672 18.5834 24.9209 18.5822 24.2754C18.5822 23.6287 18.3622 23.0818 17.9222 22.6346C17.4822 22.1875 16.9446 21.9645 16.3095 21.9658C15.6731 21.9658 15.1349 22.1893 14.6949 22.6365C14.2549 23.0836 14.0355 23.63 14.0368 24.2754C14.0368 24.9221 14.2568 25.4691 14.6968 25.9162C15.1368 26.3634 15.6743 26.5863 16.3095 26.5851ZM34.4913 26.5851C35.1277 26.5851 35.6658 26.3615 36.1058 25.9144C36.5458 25.4672 36.7652 24.9209 36.764 24.2754C36.764 23.6287 36.544 23.0818 36.104 22.6346C35.664 22.1875 35.1265 21.9645 34.4913 21.9658C33.8549 21.9658 33.3168 22.1893 32.8768 22.6365C32.4368 23.0836 32.2174 23.63 32.2186 24.2754C32.2186 24.9221 32.4386 25.4691 32.8786 25.9162C33.3186 26.3634 33.8561 26.5863 34.4913 26.5851Z" fill="url(#paint1_linear_1118_10386)" fill-opacity="0.2"/>
</g>
<defs>
<filter id="filter0_f_1118_10386" x="0.400391" y="-5" width="50" height="50" filterUnits="userSpaceOnUse" color-interpolation-filters="sRGB">
<feFlood flood-opacity="0" result="BackgroundImageFix"/>
<feBlend mode="normal" in="SourceGraphic" in2="BackgroundImageFix" result="shape"/>
<feGaussianBlur stdDeviation="2.5" result="effect1_foregroundBlur_1118_10386"/>
</filter>
<linearGradient id="paint0_linear_1118_10386" x1="-52.6765" y1="19.9997" x2="45.4004" y2="19.9997" gradientUnits="userSpaceOnUse">
<stop offset="0.575" stop-color="#00DDFF"/>
<stop offset="1" stop-color="#55FF8A"/>
</linearGradient>
<linearGradient id="paint1_linear_1118_10386" x1="25.4004" y1="8.33301" x2="25.4004" y2="31.6663" gradientUnits="userSpaceOnUse">
<stop stop-color="white" stop-opacity="0"/>
<stop offset="1" stop-color="white"/>
</linearGradient>
</defs>
</svg>
