<svg width="42" height="48" viewBox="0 0 42 48" fill="none" xmlns="http://www.w3.org/2000/svg">
<path d="M31.3844 40.8625C29.3383 42.7975 27.1043 42.492 24.9538 41.5754C22.678 40.6385 20.5902 40.5978 18.1891 41.5754C15.1826 42.8382 13.5959 42.4716 11.8003 40.8625C1.61157 30.6175 3.11483 15.0158 14.6816 14.4455C17.5002 14.5881 19.4627 15.9527 21.1121 16.0749C23.5758 15.5861 25.9351 14.1807 28.5658 14.364C31.7185 14.6085 34.0986 15.8305 35.6645 18.0302C29.1504 21.839 30.6954 30.2102 36.6667 32.5525C35.4766 35.6077 33.9316 38.6425 31.3635 40.8829L31.3844 40.8625ZM20.9034 14.3233C20.5902 9.78129 24.3692 6.03361 28.7119 5.66699C29.3174 10.9219 23.8264 14.8325 20.9034 14.3233Z" fill="#C1E7ED"/>
<g opacity="0.6" filter="url(#filter0_f_1118_10380)">
<path d="M31.3844 40.8625C29.3383 42.7975 27.1043 42.492 24.9538 41.5754C22.678 40.6385 20.5902 40.5978 18.1891 41.5754C15.1826 42.8382 13.5959 42.4716 11.8003 40.8625C1.61157 30.6175 3.11483 15.0158 14.6816 14.4455C17.5002 14.5881 19.4627 15.9527 21.1121 16.0749C23.5758 15.5861 25.9351 14.1807 28.5658 14.364C31.7185 14.6085 34.0986 15.8305 35.6645 18.0302C29.1504 21.839 30.6954 30.2102 36.6667 32.5525C35.4766 35.6077 33.9316 38.6425 31.3635 40.8829L31.3844 40.8625ZM20.9034 14.3233C20.5902 9.78129 24.3692 6.03361 28.7119 5.66699C29.3174 10.9219 23.8264 14.8325 20.9034 14.3233Z" fill="url(#paint0_linear_1118_10380)"/>
<path d="M31.3844 40.8625C29.3383 42.7975 27.1043 42.492 24.9538 41.5754C22.678 40.6385 20.5902 40.5978 18.1891 41.5754C15.1826 42.8382 13.5959 42.4716 11.8003 40.8625C1.61157 30.6175 3.11483 15.0158 14.6816 14.4455C17.5002 14.5881 19.4627 15.9527 21.1121 16.0749C23.5758 15.5861 25.9351 14.1807 28.5658 14.364C31.7185 14.6085 34.0986 15.8305 35.6645 18.0302C29.1504 21.839 30.6954 30.2102 36.6667 32.5525C35.4766 35.6077 33.9316 38.6425 31.3635 40.8829L31.3844 40.8625ZM20.9034 14.3233C20.5902 9.78129 24.3692 6.03361 28.7119 5.66699C29.3174 10.9219 23.8264 14.8325 20.9034 14.3233Z" fill="url(#paint1_linear_1118_10380)" fill-opacity="0.2"/>
</g>
<defs>
<filter id="filter0_f_1118_10380" x="-5" y="-1" width="50" height="50" filterUnits="userSpaceOnUse" color-interpolation-filters="sRGB">
<feFlood flood-opacity="0" result="BackgroundImageFix"/>
<feBlend mode="normal" in="SourceGraphic" in2="BackgroundImageFix" result="shape"/>
<feGaussianBlur stdDeviation="2.5" result="effect1_foregroundBlur_1118_10380"/>
</filter>
<linearGradient id="paint0_linear_1118_10380" x1="-40.9776" y1="24.0003" x2="36.6667" y2="24.0003" gradientUnits="userSpaceOnUse">
<stop offset="0.575" stop-color="#00DDFF"/>
<stop offset="1" stop-color="#55FF8A"/>
</linearGradient>
<linearGradient id="paint1_linear_1118_10380" x1="20.8333" y1="5.66699" x2="20.8333" y2="42.3337" gradientUnits="userSpaceOnUse">
<stop stop-color="white" stop-opacity="0"/>
<stop offset="1" stop-color="white"/>
</linearGradient>
</defs>
</svg>
