<?xml version="1.0" encoding="UTF-8"?>
<svg width="32px" height="32px" viewBox="0 0 32 32" version="1.1" xmlns="http://www.w3.org/2000/svg" xmlns:xlink="http://www.w3.org/1999/xlink">
    <!-- Generator: Sketch 48.1 (47250) - http://www.bohemiancoding.com/sketch -->
    <title>Oval 8</title>
    <desc>Created with Sketch.</desc>
    <defs></defs>
    <g id="ws-static-upgrade-mobile" stroke="none" stroke-width="1" fill="none" fill-rule="evenodd" transform="translate(-164.000000, -702.000000)">
        <path d="M180,732 C187.731986,732 194,725.731986 194,718 C194,710.268014 187.731986,704 180,704 C172.268014,704 166,710.268014 166,718 C166,725.731986 172.268014,732 180,732 Z M180,734 C171.163444,734 164,726.836556 164,718 C164,709.163444 171.163444,702 180,702 C188.836556,702 196,709.163444 196,718 C196,726.836556 188.836556,734 180,734 Z M179,708 L181,708 L181,722 L179,722 L179,708 Z M179,724 L181,724 L181,728 L179,728 L179,724 Z" id="Oval-8" fill="#FFFFFF" fill-rule="nonzero"></path>
    </g>
</svg>