<svg width="48" height="48" viewBox="0 0 48 48" fill="none" xmlns="http://www.w3.org/2000/svg">
<g filter="url(#filter0_i_1118_10377)">
<path d="M42.3337 5.66699L22.5337 8.60033V23.267L42.3337 23.0837V5.66699ZM20.7003 24.917L5.66699 24.7337V37.2003L20.517 39.217L20.7003 24.917ZM5.66699 10.8003V23.267H20.517V8.78366L5.66699 10.8003ZM22.3503 24.917V39.4003L42.3337 42.3337V25.1003L22.3503 24.917Z" fill="#C1E7ED"/>
</g>
<g opacity="0.6" filter="url(#filter1_f_1118_10377)">
<path d="M42.3337 5.66699L22.5337 8.60033V23.267L42.3337 23.0837V5.66699ZM20.7003 24.917L5.66699 24.7337V37.2003L20.517 39.217L20.7003 24.917ZM5.66699 10.8003V23.267H20.517V8.78366L5.66699 10.8003ZM22.3503 24.917V39.4003L42.3337 42.3337V25.1003L22.3503 24.917Z" fill="url(#paint0_linear_1118_10377)"/>
<path d="M42.3337 5.66699L22.5337 8.60033V23.267L42.3337 23.0837V5.66699ZM20.7003 24.917L5.66699 24.7337V37.2003L20.517 39.217L20.7003 24.917ZM5.66699 10.8003V23.267H20.517V8.78366L5.66699 10.8003ZM22.3503 24.917V39.4003L42.3337 42.3337V25.1003L22.3503 24.917Z" fill="url(#paint1_linear_1118_10377)" fill-opacity="0.2"/>
</g>
<defs>
<filter id="filter0_i_1118_10377" x="5.66699" y="5.66699" width="36.667" height="38.667" filterUnits="userSpaceOnUse" color-interpolation-filters="sRGB">
<feFlood flood-opacity="0" result="BackgroundImageFix"/>
<feBlend mode="normal" in="SourceGraphic" in2="BackgroundImageFix" result="shape"/>
<feColorMatrix in="SourceAlpha" type="matrix" values="0 0 0 0 0 0 0 0 0 0 0 0 0 0 0 0 0 0 127 0" result="hardAlpha"/>
<feOffset dy="2"/>
<feGaussianBlur stdDeviation="5"/>
<feComposite in2="hardAlpha" operator="arithmetic" k2="-1" k3="1"/>
<feColorMatrix type="matrix" values="0 0 0 0 1 0 0 0 0 1 0 0 0 0 1 0 0 0 0.86 0"/>
<feBlend mode="normal" in2="shape" result="effect1_innerShadow_1118_10377"/>
</filter>
<filter id="filter1_f_1118_10377" x="0.666992" y="0.666992" width="46.667" height="46.667" filterUnits="userSpaceOnUse" color-interpolation-filters="sRGB">
<feFlood flood-opacity="0" result="BackgroundImageFix"/>
<feBlend mode="normal" in="SourceGraphic" in2="BackgroundImageFix" result="shape"/>
<feGaussianBlur stdDeviation="2.5" result="effect1_foregroundBlur_1118_10377"/>
</filter>
<linearGradient id="paint0_linear_1118_10377" x1="-47.5702" y1="24.0003" x2="42.3337" y2="24.0003" gradientUnits="userSpaceOnUse">
<stop offset="0.575" stop-color="#00DDFF"/>
<stop offset="1" stop-color="#55FF8A"/>
</linearGradient>
<linearGradient id="paint1_linear_1118_10377" x1="24.0003" y1="5.66699" x2="24.0003" y2="42.3337" gradientUnits="userSpaceOnUse">
<stop stop-color="white" stop-opacity="0"/>
<stop offset="1" stop-color="white"/>
</linearGradient>
</defs>
</svg>
