<svg width="56" height="56" viewBox="0 0 56 56" fill="none" xmlns="http://www.w3.org/2000/svg">
<g filter="url(#filter0_i_1857_1693)">
<path d="M2.47022 48.7378L7.74278 53.7811C9.23157 55.2052 11.2124 56 13.2726 56H42.6238C44.7455 56 46.7804 55.1571 48.2806 53.6569L53.6569 48.2806C55.1571 46.7804 56 44.7455 56 42.6238V12.9387C56 10.817 55.1571 8.78215 53.6569 7.28185L48.7181 2.34314C47.2179 0.842853 45.183 0 43.0613 0H12.9387C10.817 0 8.78215 0.842853 7.28186 2.34314L2.34315 7.28185C0.842855 8.78215 0 10.817 0 12.9387V42.9567C0 45.1401 0.892408 47.2286 2.47022 48.7378Z" fill="#090D16"/>
</g>
<path d="M8.434 53.0585L3.16144 48.0152C1.78086 46.6946 1 44.8671 1 42.9567V12.9387C1 11.0822 1.7375 9.30172 3.05025 7.98896L7.98896 3.05025C9.30172 1.7375 11.0822 1 12.9387 1H43.0613C44.9178 1 46.6983 1.7375 48.011 3.05025L52.9497 7.98896C54.2625 9.30172 55 11.0822 55 12.9387V42.6238C55 44.4803 54.2625 46.2608 52.9497 47.5735L47.5735 52.9497C46.2608 54.2625 44.4803 55 42.6238 55H13.2726C11.4699 55 9.73669 54.3045 8.434 53.0585Z" stroke="#3BFFEF" stroke-opacity="0.25" stroke-width="2"/>
<path d="M28.419 16.5142C30.1071 16.3889 31.5388 15.9817 32.8243 15.6161C33.5107 15.4209 34.1554 15.2375 34.7752 15.1153L34.8267 15.1051C34.9564 15.0794 35.1438 15.0422 35.2552 15.0259C35.4541 14.9967 35.736 14.9769 35.9388 15.0539C36.5716 15.294 37.3777 19.2112 37.3908 19.9663C37.4039 20.7214 33.9521 21.9363 29.6069 22.4067C25.5311 22.8479 24.1531 22.1504 24.0452 21.7878C23.6636 20.5045 23.3636 17.8379 23.7239 17.3025C24.0745 16.7815 24.6744 16.7462 26.5197 16.6375C27.0444 16.6066 27.6699 16.5698 28.419 16.5142Z" fill="#3BFFEF"/>
<path d="M15.8698 29.1167C15.2474 30.0307 13.9525 33.2253 16.6006 36.796C18.532 39.4002 24.4249 37.4409 27.9983 35.8176C29.5658 35.1055 30.6735 34.4473 30.8183 34.278C31.5197 33.6391 32.7593 33.0525 34.6567 33.9939C34.6751 34.003 34.6948 34.012 34.7153 34.0213C34.7285 34.0273 34.742 34.0335 34.7556 34.0399C34.8689 34.0931 34.9936 34.1332 35.1151 34.1053C36.4252 33.8037 38.8876 32.5197 40.1167 30.9504C40.2216 30.8165 40.2282 30.6317 40.1449 30.4827C39.1347 28.6759 37.3502 24.8902 36.954 21.9598C36.913 21.6559 36.5971 21.4633 36.3192 21.5742C33.5221 22.6905 27.2718 23.8155 24.7677 23.0766C24.7145 23.0609 24.665 23.1048 24.6703 23.1615C24.7058 23.5408 24.8039 24.5911 24.6717 25.4252C24.6346 25.6591 24.7566 25.8995 24.9553 26.0192C25.751 26.4985 26.4184 27.5436 26.7127 28.1545C26.3572 27.4627 24.9019 26.724 24.2187 26.4411C21.7542 25.4232 18.4185 25.3322 15.8698 29.1167Z" fill="#3BFFEF"/>
<path d="M40.1196 32.01C40.268 31.8652 40.5121 31.9029 40.586 32.0991C40.6655 32.3106 40.7311 32.5233 40.793 32.7242C40.8538 32.9217 40.9112 33.1078 40.9749 33.2701C41.0158 33.3745 41.0082 33.4947 40.941 33.5836C39.6602 35.2784 36.7516 36.8678 35.4868 37.0804C33.5895 36.1389 32.0831 36.5757 31.3817 37.2147C31.2369 37.3839 30.1292 38.0421 28.5617 38.7542C24.9883 40.3775 19.0954 42.3368 17.164 39.7326C16.9116 39.3923 16.7946 39.0784 16.6545 38.7027C16.6466 38.6815 16.6386 38.66 16.6305 38.6384L16.4213 37.7909C16.3764 37.6087 16.6601 37.4799 16.7709 37.6293C18.7023 40.2335 24.5952 38.2742 28.1686 36.6509C29.7361 35.9388 30.8438 35.2806 30.9886 35.1114C31.69 34.4724 32.9296 33.8858 34.827 34.8272C34.8446 34.836 34.863 34.8444 34.8819 34.8531C34.9483 34.8836 35.0206 34.9169 35.0857 34.9746C35.0879 34.9766 35.0908 34.9776 35.0937 34.9771C36.1811 34.7944 38.682 33.4134 40.1196 32.01Z" fill="#3BFFEF"/>
<defs>
<filter id="filter0_i_1857_1693" x="0" y="0" width="56" height="56" filterUnits="userSpaceOnUse" color-interpolation-filters="sRGB">
<feFlood flood-opacity="0" result="BackgroundImageFix"/>
<feBlend mode="normal" in="SourceGraphic" in2="BackgroundImageFix" result="shape"/>
<feColorMatrix in="SourceAlpha" type="matrix" values="0 0 0 0 0 0 0 0 0 0 0 0 0 0 0 0 0 0 127 0" result="hardAlpha"/>
<feOffset/>
<feGaussianBlur stdDeviation="12.5"/>
<feComposite in2="hardAlpha" operator="arithmetic" k2="-1" k3="1"/>
<feColorMatrix type="matrix" values="0 0 0 0 0 0 0 0 0 0.866667 0 0 0 0 1 0 0 0 0.25 0"/>
<feBlend mode="normal" in2="shape" result="effect1_innerShadow_1857_1693"/>
</filter>
</defs>
</svg>
