<svg width="41" height="40" viewBox="0 0 41 40" fill="none" xmlns="http://www.w3.org/2000/svg">
<path d="M7.5 17.5C6.125 17.5 5 18.625 5 20C5 21.375 6.125 22.5 7.5 22.5C8.875 22.5 10 21.375 10 20C10 18.625 8.875 17.5 7.5 17.5ZM32.5 17.5C31.125 17.5 30 18.625 30 20C30 21.375 31.125 22.5 32.5 22.5C33.875 22.5 35 21.375 35 20C35 18.625 33.875 17.5 32.5 17.5ZM20 17.5C18.625 17.5 17.5 18.625 17.5 20C17.5 21.375 18.625 22.5 20 22.5C21.375 22.5 22.5 21.375 22.5 20C22.5 18.625 21.375 17.5 20 17.5Z" fill="#C1E7ED"/>
<g opacity="0.6" filter="url(#filter0_f_1118_10404)">
<path d="M7.90039 17.5C6.52539 17.5 5.40039 18.625 5.40039 20C5.40039 21.375 6.52539 22.5 7.90039 22.5C9.27539 22.5 10.4004 21.375 10.4004 20C10.4004 18.625 9.27539 17.5 7.90039 17.5ZM32.9004 17.5C31.5254 17.5 30.4004 18.625 30.4004 20C30.4004 21.375 31.5254 22.5 32.9004 22.5C34.2754 22.5 35.4004 21.375 35.4004 20C35.4004 18.625 34.2754 17.5 32.9004 17.5ZM20.4004 17.5C19.0254 17.5 17.9004 18.625 17.9004 20C17.9004 21.375 19.0254 22.5 20.4004 22.5C21.7754 22.5 22.9004 21.375 22.9004 20C22.9004 18.625 21.7754 17.5 20.4004 17.5Z" fill="url(#paint0_linear_1118_10404)"/>
<path d="M7.90039 17.5C6.52539 17.5 5.40039 18.625 5.40039 20C5.40039 21.375 6.52539 22.5 7.90039 22.5C9.27539 22.5 10.4004 21.375 10.4004 20C10.4004 18.625 9.27539 17.5 7.90039 17.5ZM32.9004 17.5C31.5254 17.5 30.4004 18.625 30.4004 20C30.4004 21.375 31.5254 22.5 32.9004 22.5C34.2754 22.5 35.4004 21.375 35.4004 20C35.4004 18.625 34.2754 17.5 32.9004 17.5ZM20.4004 17.5C19.0254 17.5 17.9004 18.625 17.9004 20C17.9004 21.375 19.0254 22.5 20.4004 22.5C21.7754 22.5 22.9004 21.375 22.9004 20C22.9004 18.625 21.7754 17.5 20.4004 17.5Z" fill="url(#paint1_linear_1118_10404)" fill-opacity="0.2"/>
</g>
<defs>
<filter id="filter0_f_1118_10404" x="-4.59961" y="-5" width="50" height="50" filterUnits="userSpaceOnUse" color-interpolation-filters="sRGB">
<feFlood flood-opacity="0" result="BackgroundImageFix"/>
<feBlend mode="normal" in="SourceGraphic" in2="BackgroundImageFix" result="shape"/>
<feGaussianBlur stdDeviation="2.5" result="effect1_foregroundBlur_1118_10404"/>
</filter>
<linearGradient id="paint0_linear_1118_10404" x1="-38.1573" y1="20" x2="35.4004" y2="20" gradientUnits="userSpaceOnUse">
<stop offset="0.575" stop-color="#00DDFF"/>
<stop offset="1" stop-color="#55FF8A"/>
</linearGradient>
<linearGradient id="paint1_linear_1118_10404" x1="20.4004" y1="17.5" x2="20.4004" y2="22.5" gradientUnits="userSpaceOnUse">
<stop stop-color="white" stop-opacity="0"/>
<stop offset="1" stop-color="white"/>
</linearGradient>
</defs>
</svg>
