<svg width="57" height="56" viewBox="0 0 57 56" fill="none" xmlns="http://www.w3.org/2000/svg">
<g filter="url(#filter0_i_1857_356)">
<path d="M3.22022 48.7378L8.49278 53.7811C9.98157 55.2052 11.9624 56 14.0226 56H43.3738C45.4955 56 47.5304 55.1571 49.0306 53.6569L54.4069 48.2806C55.9071 46.7804 56.75 44.7455 56.75 42.6238V12.9387C56.75 10.817 55.9071 8.78215 54.4069 7.28185L49.4681 2.34314C47.9679 0.842853 45.933 0 43.8113 0H13.6887C11.567 0 9.53215 0.842853 8.03186 2.34314L3.09315 7.28185C1.59285 8.78215 0.75 10.817 0.75 12.9387V42.9567C0.75 45.1401 1.64241 47.2286 3.22022 48.7378Z" fill="#090D16"/>
</g>
<path d="M9.184 53.0585L3.91144 48.0152C2.53086 46.6946 1.75 44.8671 1.75 42.9567V12.9387C1.75 11.0822 2.4875 9.30172 3.80025 7.98896L8.73896 3.05025C10.0517 1.7375 11.8322 1 13.6887 1H43.8113C45.6678 1 47.4483 1.7375 48.761 3.05025L53.6997 7.98896C55.0125 9.30172 55.75 11.0822 55.75 12.9387V42.6238C55.75 44.4803 55.0125 46.2608 53.6997 47.5735L48.3235 52.9497C47.0108 54.2625 45.2303 55 43.3738 55H14.0226C12.2199 55 10.4867 54.3045 9.184 53.0585Z" stroke="#3BFFEF" stroke-opacity="0.25" stroke-width="2"/>
<path d="M29.0057 39.6698C22.5623 39.6698 17.339 34.4465 17.339 28.0032C17.339 21.5599 22.5623 16.3365 29.0057 16.3365C35.4489 16.3365 40.6723 21.5599 40.6723 28.0032C40.6723 34.4465 35.4489 39.6698 29.0057 39.6698ZM24.9223 30.3365V32.6698H27.839V35.0032H30.1723V32.6698H31.339C32.9498 32.6698 34.2557 31.3641 34.2557 29.7532C34.2557 28.1423 32.9498 26.8365 31.339 26.8365H26.6723C26.3502 26.8365 26.089 26.5754 26.089 26.2532C26.089 25.931 26.3502 25.6698 26.6723 25.6698H33.089V23.3365H30.1723V21.0032H27.839V23.3365H26.6723C25.0615 23.3365 23.7557 24.6424 23.7557 26.2532C23.7557 27.8641 25.0615 29.1698 26.6723 29.1698H31.339C31.6611 29.1698 31.9223 29.431 31.9223 29.7532C31.9223 30.0754 31.6611 30.3365 31.339 30.3365H24.9223Z" fill="#3BFFEF"/>
<defs>
<filter id="filter0_i_1857_356" x="0.75" y="0" width="56" height="56" filterUnits="userSpaceOnUse" color-interpolation-filters="sRGB">
<feFlood flood-opacity="0" result="BackgroundImageFix"/>
<feBlend mode="normal" in="SourceGraphic" in2="BackgroundImageFix" result="shape"/>
<feColorMatrix in="SourceAlpha" type="matrix" values="0 0 0 0 0 0 0 0 0 0 0 0 0 0 0 0 0 0 127 0" result="hardAlpha"/>
<feOffset/>
<feGaussianBlur stdDeviation="12.5"/>
<feComposite in2="hardAlpha" operator="arithmetic" k2="-1" k3="1"/>
<feColorMatrix type="matrix" values="0 0 0 0 0 0 0 0 0 0.866667 0 0 0 0 1 0 0 0 0.25 0"/>
<feBlend mode="normal" in2="shape" result="effect1_innerShadow_1857_356"/>
</filter>
</defs>
</svg>
