<svg width="44" height="44" viewBox="0 0 44 44" fill="none" xmlns="http://www.w3.org/2000/svg">
<path d="M8.18455 22.4744C8.98911 21.7482 10.189 20.0601 11.1976 19.3317C10.6145 18.4746 10.2089 17.6492 10.1285 16.9508C9.8515 14.5451 10.2257 12.4043 11.8999 11.979C14.0163 11.4414 15.4033 13.9144 15.7234 16.2454C16.7012 15.9188 17.7497 15.6684 18.8762 15.5223C18.5202 8.17667 13.2837 5.9819 10.6889 6.7694C7.89296 7.61795 6.44715 9.99879 5.94902 13.9034C5.57713 16.8184 7.22821 20.9127 8.18455 22.4744Z" fill="#C1E7ED"/>
<path d="M31.2201 19.7126C32.8858 20.5458 34.0388 21.3316 35.8855 22.0934C40.3566 15.9033 39.8331 5.659 31.3918 5.34089C24.4613 5.07972 22.4816 11.3647 22.2553 15.5412C23.8332 15.8053 25.5827 16.5699 27.1379 17.1386C27.1351 16.6489 27.357 14.8738 27.4649 14.3537C28.0212 11.6709 29.9128 9.78286 31.6897 10.1366C33.8444 10.9511 34.012 13.2421 33.4556 15.9249C33.2685 16.8273 32.1872 18.665 31.2201 19.7126Z" fill="#C1E7ED"/>
<path d="M34.0601 23.141C30.3454 22.1887 25.9231 16.6915 19.5355 17.1386C14.027 17.5242 13.6047 19.5118 10.8089 22.0934C10.5076 22.3716 9.73476 23.3495 8.67053 24.0933C7.79576 24.7048 6.33782 25.2361 5.5375 26.9589C4.87784 28.3788 5.92859 29.8612 7.05939 30.8169C8.93932 32.1035 11.9981 33.8708 15.9584 34.1065C20.3483 34.3677 26.0538 32.7545 32.6568 26.0056C33.0283 25.6259 33.6435 25.6132 34.031 25.9772C34.4186 26.3411 34.4316 26.944 34.0601 27.3237C27.1528 34.3836 20.9193 36.3099 15.8406 36.0077C15.265 35.9734 14.7069 35.9106 14.1671 35.8243C14.2891 35.9747 14.4238 36.1303 14.5768 36.2918C16.2916 38.1012 19.5338 38.9583 22.2553 38.5774C24.0619 38.3245 26.0557 36.993 27.7958 35.831C28.6522 35.259 29.4472 34.7281 30.1282 34.3871C31.8237 33.538 32.6306 33.2712 33.5347 32.9724C33.9488 32.8355 34.3834 32.6918 34.933 32.4824C36.6825 31.8158 38.3349 29.9111 38.5843 27.7208C38.7796 26.0056 36.8575 23.9981 34.0601 23.141Z" fill="#C1E7ED"/>
<g opacity="0.6" filter="url(#filter0_f_1118_10383)">
<path d="M8.18455 22.4744C8.98911 21.7482 10.189 20.0601 11.1976 19.3317C10.6145 18.4746 10.2089 17.6492 10.1285 16.9508C9.8515 14.5451 10.2257 12.4043 11.8999 11.979C14.0163 11.4414 15.4033 13.9144 15.7234 16.2454C16.7012 15.9188 17.7497 15.6684 18.8762 15.5223C18.5202 8.17667 13.2837 5.9819 10.6889 6.7694C7.89296 7.61795 6.44715 9.99879 5.94902 13.9034C5.57713 16.8184 7.22821 20.9127 8.18455 22.4744Z" fill="url(#paint0_linear_1118_10383)"/>
<path d="M8.18455 22.4744C8.98911 21.7482 10.189 20.0601 11.1976 19.3317C10.6145 18.4746 10.2089 17.6492 10.1285 16.9508C9.8515 14.5451 10.2257 12.4043 11.8999 11.979C14.0163 11.4414 15.4033 13.9144 15.7234 16.2454C16.7012 15.9188 17.7497 15.6684 18.8762 15.5223C18.5202 8.17667 13.2837 5.9819 10.6889 6.7694C7.89296 7.61795 6.44715 9.99879 5.94902 13.9034C5.57713 16.8184 7.22821 20.9127 8.18455 22.4744Z" fill="url(#paint1_linear_1118_10383)" fill-opacity="0.2"/>
<path d="M31.2201 19.7126C32.8858 20.5458 34.0388 21.3316 35.8855 22.0934C40.3566 15.9033 39.8331 5.659 31.3918 5.34089C24.4613 5.07972 22.4816 11.3647 22.2553 15.5412C23.8332 15.8053 25.5827 16.5699 27.1379 17.1386C27.1351 16.6489 27.357 14.8738 27.4649 14.3537C28.0212 11.6709 29.9128 9.78286 31.6897 10.1366C33.8444 10.9511 34.012 13.2421 33.4556 15.9249C33.2685 16.8273 32.1872 18.665 31.2201 19.7126Z" fill="url(#paint2_linear_1118_10383)"/>
<path d="M31.2201 19.7126C32.8858 20.5458 34.0388 21.3316 35.8855 22.0934C40.3566 15.9033 39.8331 5.659 31.3918 5.34089C24.4613 5.07972 22.4816 11.3647 22.2553 15.5412C23.8332 15.8053 25.5827 16.5699 27.1379 17.1386C27.1351 16.6489 27.357 14.8738 27.4649 14.3537C28.0212 11.6709 29.9128 9.78286 31.6897 10.1366C33.8444 10.9511 34.012 13.2421 33.4556 15.9249C33.2685 16.8273 32.1872 18.665 31.2201 19.7126Z" fill="url(#paint3_linear_1118_10383)" fill-opacity="0.2"/>
<path d="M34.0601 23.141C30.3454 22.1887 25.9231 16.6915 19.5355 17.1386C14.027 17.5242 13.6047 19.5118 10.8089 22.0934C10.5076 22.3716 9.73476 23.3495 8.67053 24.0933C7.79576 24.7048 6.33782 25.2361 5.5375 26.9589C4.87784 28.3788 5.92859 29.8612 7.05939 30.8169C8.93932 32.1035 11.9981 33.8708 15.9584 34.1065C20.3483 34.3677 26.0538 32.7545 32.6568 26.0056C33.0283 25.6259 33.6435 25.6132 34.031 25.9772C34.4186 26.3411 34.4316 26.944 34.0601 27.3237C27.1528 34.3836 20.9193 36.3099 15.8406 36.0077C15.265 35.9734 14.7069 35.9106 14.1671 35.8243C14.2891 35.9747 14.4238 36.1303 14.5768 36.2918C16.2916 38.1012 19.5338 38.9583 22.2553 38.5774C24.0619 38.3245 26.0557 36.993 27.7958 35.831C28.6522 35.259 29.4472 34.7281 30.1282 34.3871C31.8237 33.538 32.6306 33.2712 33.5347 32.9724C33.9488 32.8355 34.3834 32.6918 34.933 32.4824C36.6825 31.8158 38.3349 29.9111 38.5843 27.7208C38.7796 26.0056 36.8575 23.9981 34.0601 23.141Z" fill="url(#paint4_linear_1118_10383)"/>
<path d="M34.0601 23.141C30.3454 22.1887 25.9231 16.6915 19.5355 17.1386C14.027 17.5242 13.6047 19.5118 10.8089 22.0934C10.5076 22.3716 9.73476 23.3495 8.67053 24.0933C7.79576 24.7048 6.33782 25.2361 5.5375 26.9589C4.87784 28.3788 5.92859 29.8612 7.05939 30.8169C8.93932 32.1035 11.9981 33.8708 15.9584 34.1065C20.3483 34.3677 26.0538 32.7545 32.6568 26.0056C33.0283 25.6259 33.6435 25.6132 34.031 25.9772C34.4186 26.3411 34.4316 26.944 34.0601 27.3237C27.1528 34.3836 20.9193 36.3099 15.8406 36.0077C15.265 35.9734 14.7069 35.9106 14.1671 35.8243C14.2891 35.9747 14.4238 36.1303 14.5768 36.2918C16.2916 38.1012 19.5338 38.9583 22.2553 38.5774C24.0619 38.3245 26.0557 36.993 27.7958 35.831C28.6522 35.259 29.4472 34.7281 30.1282 34.3871C31.8237 33.538 32.6306 33.2712 33.5347 32.9724C33.9488 32.8355 34.3834 32.6918 34.933 32.4824C36.6825 31.8158 38.3349 29.9111 38.5843 27.7208C38.7796 26.0056 36.8575 23.9981 34.0601 23.141Z" fill="url(#paint5_linear_1118_10383)" fill-opacity="0.2"/>
</g>
<defs>
<filter id="filter0_f_1118_10383" x="-3" y="-3" width="50" height="50" filterUnits="userSpaceOnUse" color-interpolation-filters="sRGB">
<feFlood flood-opacity="0" result="BackgroundImageFix"/>
<feBlend mode="normal" in="SourceGraphic" in2="BackgroundImageFix" result="shape"/>
<feGaussianBlur stdDeviation="2.5" result="effect1_foregroundBlur_1118_10383"/>
</filter>
<linearGradient id="paint0_linear_1118_10383" x1="-43.0644" y1="21.9997" x2="38.6663" y2="21.9997" gradientUnits="userSpaceOnUse">
<stop offset="0.575" stop-color="#00DDFF"/>
<stop offset="1" stop-color="#55FF8A"/>
</linearGradient>
<linearGradient id="paint1_linear_1118_10383" x1="21.9997" y1="5.33301" x2="21.9997" y2="38.6663" gradientUnits="userSpaceOnUse">
<stop stop-color="white" stop-opacity="0"/>
<stop offset="1" stop-color="white"/>
</linearGradient>
<linearGradient id="paint2_linear_1118_10383" x1="-43.0644" y1="21.9997" x2="38.6663" y2="21.9997" gradientUnits="userSpaceOnUse">
<stop offset="0.575" stop-color="#00DDFF"/>
<stop offset="1" stop-color="#55FF8A"/>
</linearGradient>
<linearGradient id="paint3_linear_1118_10383" x1="21.9997" y1="5.33301" x2="21.9997" y2="38.6663" gradientUnits="userSpaceOnUse">
<stop stop-color="white" stop-opacity="0"/>
<stop offset="1" stop-color="white"/>
</linearGradient>
<linearGradient id="paint4_linear_1118_10383" x1="-43.0644" y1="21.9997" x2="38.6663" y2="21.9997" gradientUnits="userSpaceOnUse">
<stop offset="0.575" stop-color="#00DDFF"/>
<stop offset="1" stop-color="#55FF8A"/>
</linearGradient>
<linearGradient id="paint5_linear_1118_10383" x1="21.9997" y1="5.33301" x2="21.9997" y2="38.6663" gradientUnits="userSpaceOnUse">
<stop stop-color="white" stop-opacity="0"/>
<stop offset="1" stop-color="white"/>
</linearGradient>
</defs>
</svg>
