<svg width="48" height="48" viewBox="0 0 48 48" fill="none" xmlns="http://www.w3.org/2000/svg">
<path d="M42.2985 22.9238C42.288 22.8087 42.2819 22.6933 42.2802 22.5777V22.5685L42.2542 22.2224V22.2132C42.1605 21.1834 41.9796 20.1634 41.7134 19.1643C41.7134 19.1551 41.7134 19.1551 41.7042 19.1459L41.6248 18.8519C41.6156 18.8351 41.6156 18.8167 41.6064 18.8075C41.5789 18.7187 41.553 18.6207 41.527 18.5319C41.5178 18.515 41.5178 18.4875 41.5087 18.4706L41.4292 18.2118L41.4017 18.1414C41.3762 18.0538 41.3466 17.9674 41.3131 17.8826L41.2871 17.8029L41.1985 17.5549C41.1909 17.5303 41.1817 17.5063 41.171 17.4829C41.1359 17.4033 41.1099 17.3144 41.0748 17.2348C41.0656 17.2164 41.0564 17.1889 41.0473 17.172C41.0121 17.0832 40.977 17.0036 40.9403 16.9148C40.9403 16.9056 40.9327 16.8964 40.9327 16.8872C40.8175 16.602 40.6932 16.3206 40.5599 16.0434L40.5324 15.9898C40.4973 15.9179 40.4713 15.8566 40.4362 15.7938C40.4178 15.7586 40.3995 15.7142 40.3827 15.679C40.3552 15.6162 40.3216 15.5626 40.2941 15.4998C40.2666 15.4554 40.2483 15.411 40.2223 15.3666C40.1963 15.3145 40.1612 15.2594 40.1337 15.1981L40.0542 15.0557C40.0267 15.0021 39.9931 14.9485 39.9656 14.8964C39.9395 14.844 39.9099 14.7934 39.877 14.7448C39.8495 14.6912 39.8159 14.6468 39.7884 14.5932C39.7609 14.5396 39.7273 14.4952 39.6998 14.4432L39.6112 14.3007C39.5745 14.2472 39.5501 14.1936 39.5134 14.14C39.4859 14.0955 39.4599 14.0511 39.4248 14.0067L39.2292 13.7127L39.1131 13.5443C39.0872 13.509 39.0612 13.4646 39.0337 13.4294L38.9008 13.2426L38.8305 13.1446C38.7587 13.0466 38.6976 12.9578 38.6258 12.8689C38.0939 12.1703 37.5129 11.5106 36.8872 10.895C36.4629 10.4532 36.0097 10.0404 35.5305 9.65922C35.2347 9.40165 34.9267 9.1584 34.6077 8.9303C34.0361 8.50333 33.4277 8.1282 32.7897 7.80935C31.3292 7.03271 29.7727 6.45292 28.1606 6.08505C28.017 6.05902 27.8749 6.0238 27.742 5.99623H27.7328C27.6625 5.98704 27.5999 5.96867 27.5296 5.96101C26.6068 5.79256 25.6657 5.68537 24.7185 5.66699H23.9363C22.7844 5.68537 21.6477 5.80941 20.5752 6.04064C18.0911 6.56436 15.9003 7.61487 14.4458 8.9303C14.3664 9.00074 14.3037 9.05434 14.2686 9.08956L14.2335 9.12631H14.2411C14.2411 9.12631 14.2503 9.12631 14.2503 9.11713L14.2411 9.12631C14.2411 9.12631 14.2503 9.11713 14.2594 9.11713C15.3411 8.46783 16.8414 7.93492 17.9139 7.66694C18.0559 7.63172 18.2072 7.59649 18.3493 7.55974C18.3752 7.55209 18.4104 7.55209 18.4379 7.54443C18.5616 7.51686 18.6854 7.4893 18.8198 7.46327C18.8366 7.46327 18.8626 7.45408 18.8809 7.45408C23.6262 6.58274 28.6831 8.00536 32.203 11.3743C32.9632 12.0984 33.6309 12.9142 34.1907 13.8031C36.4365 17.4477 36.2226 22.0356 34.4748 24.7369C31.9296 28.6679 26.2432 30.0201 22.7217 26.5791C21.5386 25.4291 20.859 23.8557 20.8319 22.2041C20.8193 21.415 20.9767 20.6326 21.2933 19.9101C21.4185 19.6253 22.2603 18.0081 22.6423 18.0878C21.6752 17.8826 19.8648 18.2838 18.5968 20.1765C17.4616 21.8763 17.5243 24.4888 18.224 26.3479C17.777 25.4309 17.4749 24.4499 17.3287 23.4398C16.4243 17.3236 20.5309 12.1048 24.2999 10.8062C22.268 9.02831 17.1683 9.15235 13.381 11.944C11.1733 13.5718 9.59364 15.8842 8.75948 18.6406C8.88476 17.0939 9.46989 14.7816 10.6692 12.4264C9.40114 13.0849 7.78477 15.1644 6.98727 17.0847C5.83228 19.8565 5.43354 23.1734 5.79714 26.3295L5.87659 27.0416C7.34935 35.7182 14.898 42.3337 23.973 42.3337C34.1112 42.3337 42.3337 34.0919 42.3337 23.9299C42.3259 23.5944 42.3142 23.259 42.2985 22.9238Z" fill="#C1E7ED"/>
<path d="M42.2985 22.9238C42.288 22.8087 42.2819 22.6933 42.2802 22.5777V22.5685L42.2542 22.2224V22.2132C42.1605 21.1834 41.9796 20.1634 41.7134 19.1643C41.7134 19.1551 41.7134 19.1551 41.7042 19.1459L41.6248 18.8519C41.6156 18.8351 41.6156 18.8167 41.6064 18.8075C41.5789 18.7187 41.553 18.6207 41.527 18.5319C41.5178 18.515 41.5178 18.4875 41.5087 18.4706L41.4292 18.2118L41.4017 18.1414C41.3762 18.0538 41.3466 17.9674 41.3131 17.8826L41.2871 17.8029L41.1985 17.5549C41.1909 17.5303 41.1817 17.5063 41.171 17.4829C41.1359 17.4033 41.1099 17.3144 41.0748 17.2348C41.0656 17.2164 41.0564 17.1889 41.0473 17.172C41.0121 17.0832 40.977 17.0036 40.9403 16.9148C40.9403 16.9056 40.9327 16.8964 40.9327 16.8872C40.8175 16.602 40.6932 16.3206 40.5599 16.0434L40.5324 15.9898C40.4973 15.9179 40.4713 15.8566 40.4362 15.7938C40.4178 15.7586 40.3995 15.7142 40.3827 15.679C40.3552 15.6162 40.3216 15.5626 40.2941 15.4998C40.2666 15.4554 40.2483 15.411 40.2223 15.3666C40.1963 15.3145 40.1612 15.2594 40.1337 15.1981L40.0542 15.0557C40.0267 15.0021 39.9931 14.9485 39.9656 14.8964C39.9395 14.844 39.9099 14.7934 39.877 14.7448C39.8495 14.6912 39.8159 14.6468 39.7884 14.5932C39.7609 14.5396 39.7273 14.4952 39.6998 14.4432L39.6112 14.3007C39.5745 14.2472 39.5501 14.1936 39.5134 14.14C39.4859 14.0955 39.4599 14.0511 39.4248 14.0067L39.2292 13.7127L39.1131 13.5443C39.0872 13.509 39.0612 13.4646 39.0337 13.4294L38.9008 13.2426L38.8305 13.1446C38.7587 13.0466 38.6976 12.9578 38.6258 12.8689C38.0939 12.1703 37.5129 11.5106 36.8872 10.895C36.4629 10.4532 36.0097 10.0404 35.5305 9.65922C35.2347 9.40165 34.9267 9.1584 34.6077 8.9303C34.0361 8.50333 33.4277 8.1282 32.7897 7.80935C31.3292 7.03271 29.7727 6.45292 28.1606 6.08505C28.017 6.05902 27.8749 6.0238 27.742 5.99623H27.7328C27.6625 5.98704 27.5999 5.96867 27.5296 5.96101C26.6068 5.79256 25.6657 5.68537 24.7185 5.66699H23.9363C22.7844 5.68537 21.6477 5.80941 20.5752 6.04064C18.0911 6.56436 15.9003 7.61487 14.4458 8.9303C14.3664 9.00074 14.3037 9.05434 14.2686 9.08956L14.2335 9.12631H14.2411C14.2411 9.12631 14.2503 9.12631 14.2503 9.11713L14.2411 9.12631C14.2411 9.12631 14.2503 9.11713 14.2594 9.11713C15.3411 8.46783 16.8414 7.93492 17.9139 7.66694C18.0559 7.63172 18.2072 7.59649 18.3493 7.55974C18.3752 7.55209 18.4104 7.55209 18.4379 7.54443C18.5616 7.51686 18.6854 7.4893 18.8198 7.46327C18.8366 7.46327 18.8626 7.45408 18.8809 7.45408C23.6262 6.58274 28.6831 8.00536 32.203 11.3743C32.9632 12.0984 33.6309 12.9142 34.1907 13.8031C36.4365 17.4477 36.2226 22.0356 34.4748 24.7369C31.9296 28.6679 26.2432 30.0201 22.7217 26.5791C21.5386 25.4291 20.859 23.8557 20.8319 22.2041C20.8193 21.415 20.9767 20.6326 21.2933 19.9101C21.4185 19.6253 22.2603 18.0081 22.6423 18.0878C21.6752 17.8826 19.8648 18.2838 18.5968 20.1765C17.4616 21.8763 17.5243 24.4888 18.224 26.3479C17.777 25.4309 17.4749 24.4499 17.3287 23.4398C16.4243 17.3236 20.5309 12.1048 24.2999 10.8062C22.268 9.02831 17.1683 9.15235 13.381 11.944C11.1733 13.5718 9.59364 15.8842 8.75948 18.6406C8.88476 17.0939 9.46989 14.7816 10.6692 12.4264C9.40114 13.0849 7.78477 15.1644 6.98727 17.0847C5.83228 19.8565 5.43354 23.1734 5.79714 26.3295L5.87659 27.0416C7.34935 35.7182 14.898 42.3337 23.973 42.3337C34.1112 42.3337 42.3337 34.0919 42.3337 23.9299C42.3259 23.5944 42.3142 23.259 42.2985 22.9238Z" fill="url(#paint0_linear_1118_10395)" fill-opacity="0.2"/>
<g opacity="0.6" filter="url(#filter0_f_1118_10395)">
<path d="M42.2985 22.9238C42.288 22.8087 42.2819 22.6933 42.2802 22.5777V22.5685L42.2542 22.2224V22.2132C42.1605 21.1834 41.9796 20.1634 41.7134 19.1643C41.7134 19.1551 41.7134 19.1551 41.7042 19.1459L41.6248 18.8519C41.6156 18.8351 41.6156 18.8167 41.6064 18.8075C41.5789 18.7187 41.553 18.6207 41.527 18.5319C41.5178 18.515 41.5178 18.4875 41.5087 18.4706L41.4292 18.2118L41.4017 18.1414C41.3762 18.0538 41.3466 17.9674 41.3131 17.8826L41.2871 17.8029L41.1985 17.5549C41.1909 17.5303 41.1817 17.5063 41.171 17.4829C41.1359 17.4033 41.1099 17.3144 41.0748 17.2348C41.0656 17.2164 41.0564 17.1889 41.0473 17.172C41.0121 17.0832 40.977 17.0036 40.9403 16.9148C40.9403 16.9056 40.9327 16.8964 40.9327 16.8872C40.8175 16.602 40.6932 16.3206 40.5599 16.0434L40.5324 15.9898C40.4973 15.9179 40.4713 15.8566 40.4362 15.7938C40.4178 15.7586 40.3995 15.7142 40.3827 15.679C40.3552 15.6162 40.3216 15.5626 40.2941 15.4998C40.2666 15.4554 40.2483 15.411 40.2223 15.3666C40.1963 15.3145 40.1612 15.2594 40.1337 15.1981L40.0542 15.0557C40.0267 15.0021 39.9931 14.9485 39.9656 14.8964C39.9395 14.844 39.9099 14.7934 39.877 14.7448C39.8495 14.6912 39.8159 14.6468 39.7884 14.5932C39.7609 14.5396 39.7273 14.4952 39.6998 14.4432L39.6112 14.3007C39.5745 14.2472 39.5501 14.1936 39.5134 14.14C39.4859 14.0955 39.4599 14.0511 39.4248 14.0067L39.2292 13.7127L39.1131 13.5443C39.0872 13.509 39.0612 13.4646 39.0337 13.4294L38.9008 13.2426L38.8305 13.1446C38.7587 13.0466 38.6976 12.9578 38.6258 12.8689C38.0939 12.1703 37.5129 11.5106 36.8872 10.895C36.4629 10.4532 36.0097 10.0404 35.5305 9.65922C35.2347 9.40165 34.9267 9.1584 34.6077 8.9303C34.0361 8.50333 33.4277 8.1282 32.7897 7.80935C31.3292 7.03271 29.7727 6.45292 28.1606 6.08505C28.017 6.05902 27.8749 6.0238 27.742 5.99623H27.7328C27.6625 5.98704 27.5999 5.96867 27.5296 5.96101C26.6068 5.79256 25.6657 5.68537 24.7185 5.66699H23.9363C22.7844 5.68537 21.6477 5.80941 20.5752 6.04064C18.0911 6.56436 15.9003 7.61487 14.4458 8.9303C14.3664 9.00074 14.3037 9.05434 14.2686 9.08956L14.2335 9.12631H14.2411C14.2411 9.12631 14.2503 9.12631 14.2503 9.11713L14.2411 9.12631C14.2411 9.12631 14.2503 9.11713 14.2594 9.11713C15.3411 8.46783 16.8414 7.93492 17.9139 7.66694C18.0559 7.63172 18.2072 7.59649 18.3493 7.55974C18.3752 7.55209 18.4104 7.55209 18.4379 7.54443C18.5616 7.51686 18.6854 7.4893 18.8198 7.46327C18.8366 7.46327 18.8626 7.45408 18.8809 7.45408C23.6262 6.58274 28.6831 8.00536 32.203 11.3743C32.9632 12.0984 33.6309 12.9142 34.1907 13.8031C36.4365 17.4477 36.2226 22.0356 34.4748 24.7369C31.9296 28.6679 26.2432 30.0201 22.7217 26.5791C21.5386 25.4291 20.859 23.8557 20.8319 22.2041C20.8193 21.415 20.9767 20.6326 21.2933 19.9101C21.4185 19.6253 22.2603 18.0081 22.6423 18.0878C21.6752 17.8826 19.8648 18.2838 18.5968 20.1765C17.4616 21.8763 17.5243 24.4888 18.224 26.3479C17.777 25.4309 17.4749 24.4499 17.3287 23.4398C16.4243 17.3236 20.5309 12.1048 24.2999 10.8062C22.268 9.02831 17.1683 9.15235 13.381 11.944C11.1733 13.5718 9.59364 15.8842 8.75948 18.6406C8.88476 17.0939 9.46989 14.7816 10.6692 12.4264C9.40114 13.0849 7.78477 15.1644 6.98727 17.0847C5.83228 19.8565 5.43354 23.1734 5.79714 26.3295L5.87659 27.0416C7.34935 35.7182 14.898 42.3337 23.973 42.3337C34.1112 42.3337 42.3337 34.0919 42.3337 23.9299C42.3259 23.5944 42.3142 23.259 42.2985 22.9238Z" fill="url(#paint1_linear_1118_10395)"/>
<path d="M42.2985 22.9238C42.288 22.8087 42.2819 22.6933 42.2802 22.5777V22.5685L42.2542 22.2224V22.2132C42.1605 21.1834 41.9796 20.1634 41.7134 19.1643C41.7134 19.1551 41.7134 19.1551 41.7042 19.1459L41.6248 18.8519C41.6156 18.8351 41.6156 18.8167 41.6064 18.8075C41.5789 18.7187 41.553 18.6207 41.527 18.5319C41.5178 18.515 41.5178 18.4875 41.5087 18.4706L41.4292 18.2118L41.4017 18.1414C41.3762 18.0538 41.3466 17.9674 41.3131 17.8826L41.2871 17.8029L41.1985 17.5549C41.1909 17.5303 41.1817 17.5063 41.171 17.4829C41.1359 17.4033 41.1099 17.3144 41.0748 17.2348C41.0656 17.2164 41.0564 17.1889 41.0473 17.172C41.0121 17.0832 40.977 17.0036 40.9403 16.9148C40.9403 16.9056 40.9327 16.8964 40.9327 16.8872C40.8175 16.602 40.6932 16.3206 40.5599 16.0434L40.5324 15.9898C40.4973 15.9179 40.4713 15.8566 40.4362 15.7938C40.4178 15.7586 40.3995 15.7142 40.3827 15.679C40.3552 15.6162 40.3216 15.5626 40.2941 15.4998C40.2666 15.4554 40.2483 15.411 40.2223 15.3666C40.1963 15.3145 40.1612 15.2594 40.1337 15.1981L40.0542 15.0557C40.0267 15.0021 39.9931 14.9485 39.9656 14.8964C39.9395 14.844 39.9099 14.7934 39.877 14.7448C39.8495 14.6912 39.8159 14.6468 39.7884 14.5932C39.7609 14.5396 39.7273 14.4952 39.6998 14.4432L39.6112 14.3007C39.5745 14.2472 39.5501 14.1936 39.5134 14.14C39.4859 14.0955 39.4599 14.0511 39.4248 14.0067L39.2292 13.7127L39.1131 13.5443C39.0872 13.509 39.0612 13.4646 39.0337 13.4294L38.9008 13.2426L38.8305 13.1446C38.7587 13.0466 38.6976 12.9578 38.6258 12.8689C38.0939 12.1703 37.5129 11.5106 36.8872 10.895C36.4629 10.4532 36.0097 10.0404 35.5305 9.65922C35.2347 9.40165 34.9267 9.1584 34.6077 8.9303C34.0361 8.50333 33.4277 8.1282 32.7897 7.80935C31.3292 7.03271 29.7727 6.45292 28.1606 6.08505C28.017 6.05902 27.8749 6.0238 27.742 5.99623H27.7328C27.6625 5.98704 27.5999 5.96867 27.5296 5.96101C26.6068 5.79256 25.6657 5.68537 24.7185 5.66699H23.9363C22.7844 5.68537 21.6477 5.80941 20.5752 6.04064C18.0911 6.56436 15.9003 7.61487 14.4458 8.9303C14.3664 9.00074 14.3037 9.05434 14.2686 9.08956L14.2335 9.12631H14.2411C14.2411 9.12631 14.2503 9.12631 14.2503 9.11713L14.2411 9.12631C14.2411 9.12631 14.2503 9.11713 14.2594 9.11713C15.3411 8.46783 16.8414 7.93492 17.9139 7.66694C18.0559 7.63172 18.2072 7.59649 18.3493 7.55974C18.3752 7.55209 18.4104 7.55209 18.4379 7.54443C18.5616 7.51686 18.6854 7.4893 18.8198 7.46327C18.8366 7.46327 18.8626 7.45408 18.8809 7.45408C23.6262 6.58274 28.6831 8.00536 32.203 11.3743C32.9632 12.0984 33.6309 12.9142 34.1907 13.8031C36.4365 17.4477 36.2226 22.0356 34.4748 24.7369C31.9296 28.6679 26.2432 30.0201 22.7217 26.5791C21.5386 25.4291 20.859 23.8557 20.8319 22.2041C20.8193 21.415 20.9767 20.6326 21.2933 19.9101C21.4185 19.6253 22.2603 18.0081 22.6423 18.0878C21.6752 17.8826 19.8648 18.2838 18.5968 20.1765C17.4616 21.8763 17.5243 24.4888 18.224 26.3479C17.777 25.4309 17.4749 24.4499 17.3287 23.4398C16.4243 17.3236 20.5309 12.1048 24.2999 10.8062C22.268 9.02831 17.1683 9.15235 13.381 11.944C11.1733 13.5718 9.59364 15.8842 8.75948 18.6406C8.88476 17.0939 9.46989 14.7816 10.6692 12.4264C9.40114 13.0849 7.78477 15.1644 6.98727 17.0847C5.83228 19.8565 5.43354 23.1734 5.79714 26.3295L5.87659 27.0416C7.34935 35.7182 14.898 42.3337 23.973 42.3337C34.1112 42.3337 42.3337 34.0919 42.3337 23.9299C42.3259 23.5944 42.3142 23.259 42.2985 22.9238Z" fill="url(#paint2_linear_1118_10395)" fill-opacity="0.2"/>
</g>
<defs>
<filter id="filter0_f_1118_10395" x="-1" y="-1" width="50" height="50" filterUnits="userSpaceOnUse" color-interpolation-filters="sRGB">
<feFlood flood-opacity="0" result="BackgroundImageFix"/>
<feBlend mode="normal" in="SourceGraphic" in2="BackgroundImageFix" result="shape"/>
<feGaussianBlur stdDeviation="2.5" result="effect1_foregroundBlur_1118_10395"/>
</filter>
<linearGradient id="paint0_linear_1118_10395" x1="24.0003" y1="5.66699" x2="24.0003" y2="42.3337" gradientUnits="userSpaceOnUse">
<stop stop-color="white" stop-opacity="0"/>
<stop offset="1" stop-color="white"/>
</linearGradient>
<linearGradient id="paint1_linear_1118_10395" x1="-47.5702" y1="24.0003" x2="42.3337" y2="24.0003" gradientUnits="userSpaceOnUse">
<stop offset="0.575" stop-color="#00DDFF"/>
<stop offset="1" stop-color="#55FF8A"/>
</linearGradient>
<linearGradient id="paint2_linear_1118_10395" x1="24.0003" y1="5.66699" x2="24.0003" y2="42.3337" gradientUnits="userSpaceOnUse">
<stop stop-color="white" stop-opacity="0"/>
<stop offset="1" stop-color="white"/>
</linearGradient>
</defs>
</svg>
